<?xml version="1.0" encoding="utf-8" ?>
<!-- Generator: Assembly 1.0 - http://assemblyapp.co -->
<svg version="1.1" xmlns="http://www.w3.org/2000/svg" xmlns:xlink="http://www.w3.org/1999/xlink" width="300" height="168.75" viewBox="0 0 300 168.75">
	<g id="widget" transform="matrix(1,0,0,1,150,84.375)">
		<path d="M27.2666,2.64873 L-29.1313,2.64873" fill="none" stroke-width="2" stroke="#945ad9" stroke-linecap="square" stroke-linejoin="miter" />
		<path d="M26.2432,4.29746 C25.3326,4.29746 24.5945,3.5593 24.5945,2.64873 C24.5945,1.73816 25.3326,1 26.2432,1 C27.1538,1 27.8919,1.73816 27.8919,2.64873 C27.8919,3.5593 27.1538,4.29746 26.2432,4.29746 Z" fill="none" stroke-width="2" stroke="#945ad9" stroke-linecap="square" stroke-linejoin="miter" />
		<path d="M-27.9942,4.29746 C-28.9048,4.29746 -29.6429,3.5593 -29.6429,2.64873 C-29.6429,1.73816 -28.9048,1 -27.9942,1 C-27.0837,1 -26.3455,1.73816 -26.3455,2.64873 C-26.3455,3.5593 -27.0837,4.29746 -27.9942,4.29746 Z" fill="none" stroke-width="2" stroke="#945ad9" stroke-linecap="square" stroke-linejoin="miter" />
		<path d="M-11.6435,22.8479 L-69.2388,40.0245 L-126.962,22.8479 L-126.962,-21.9153 L-69.2388,-39.0919 L-11.6435,-21.9153 Z" fill="#2c9bde" fill-opacity="1" />
		<path d="M-115.561,3.9319 Q-115.525,4.41187 -115.49,4.81576Q-115.455,5.21964 -115.408,5.55914Q-115.362,5.88693 -115.25,6.0157Q-115.139,6.14448 -114.858,6.22642Q-114.589,6.32008 -114.331,6.33764Q-114.074,6.3552 -113.769,6.3552Q-113.465,6.3552 -113.377,6.27325Q-113.289,6.1913 -113.289,5.98058Q-113.301,4.9738 -113.295,3.79727Q-113.289,2.62074 -113.266,1.45006Q-113.243,0.279385 -113.196,-0.797637Q-113.149,-1.87466 -113.079,-2.70584Q-113.044,-3.04534 -113.143,-3.25606Q-113.243,-3.46678 -113.606,-3.59555Q-113.875,-3.6658 -114.138,-3.74774Q-114.402,-3.82969 -114.712,-3.89993Q-115.022,-3.97017 -115.397,-4.02285Q-115.771,-4.07553 -116.251,-4.09895Q-116.802,-4.14577 -117.082,-3.94676Q-117.363,-3.74774 -117.539,-3.43166Q-118.031,-2.55365 -118.575,-1.42395Q-119.119,-0.294246 -119.64,0.864724Q-120.161,2.02369 -120.612,3.11242Q-121.063,4.20115 -121.344,5.00892Q-121.414,5.25476 -121.408,5.4011Q-121.402,5.54743 -121.344,5.64108Q-121.285,5.73474 -121.18,5.79913Q-121.074,5.86351 -120.934,5.95717Q-120.747,6.05082 -120.565,6.12692Q-120.384,6.20301 -120.232,6.26154Q-119.962,6.3552 -119.828,6.32008Q-119.693,6.28496 -119.599,6.08594Q-119.436,5.71133 -119.26,5.31915Q-119.084,4.92697 -118.85,4.47041Q-118.183,4.29481 -117.311,4.17189Q-116.439,4.04896 -115.561,3.9319Z M-117.797,2.29295 Q-117.246,1.18081 -116.702,0.144758Q-116.158,-0.891291 -115.689,-1.74589Q-115.713,-0.809344 -115.701,0.144758Q-115.689,1.09886 -115.666,2.05881Q-116.204,2.09393 -116.737,2.15247Q-117.27,2.211 -117.797,2.29295Z" fill="#09476b" fill-opacity="1" />
		<path d="M-104.521,-2.07367 Q-104.158,-2.09709 -104.094,-2.1966Q-104.029,-2.2961 -104.1,-2.56536Q-104.182,-2.86973 -104.334,-3.18582Q-104.486,-3.5019 -104.72,-3.77116Q-104.837,-3.92334 -104.995,-3.98773Q-105.153,-4.05212 -105.516,-4.05212Q-106.207,-4.0287 -107.079,-3.96432Q-107.951,-3.89993 -108.858,-3.80628Q-109.766,-3.71262 -110.638,-3.59555Q-111.51,-3.47849 -112.201,-3.33801Q-112.423,-3.27947 -112.493,-3.19167Q-112.564,-3.10387 -112.423,-2.83461Q-112.294,-2.57707 -112.09,-2.20245Q-111.885,-1.82783 -111.639,-1.58199Q-111.405,-1.33615 -111.217,-1.28347Q-111.03,-1.23079 -110.737,-1.30103Q-110.527,-1.35956 -110.211,-1.40054Q-109.895,-1.44151 -109.555,-1.50004Q-109.731,-0.703983 -109.906,0.226705Q-110.082,1.15739 -110.228,2.07052Q-110.374,2.98365 -110.48,3.80312Q-110.585,4.6226 -110.62,5.18452Q-110.667,5.40695 -110.609,5.56499Q-110.55,5.72303 -110.415,5.8401Q-110.281,5.95717 -110.082,6.03911Q-109.883,6.12106 -109.637,6.1913Q-109.391,6.26154 -109.192,6.32008Q-108.993,6.37861 -108.841,6.38446Q-108.689,6.39032 -108.601,6.33764Q-108.513,6.28496 -108.49,6.12106Q-108.326,5.26647 -108.109,4.2831Q-107.893,3.29973 -107.647,2.26368Q-107.401,1.22763 -107.138,0.174024Q-106.874,-0.879585 -106.628,-1.86295Q-106.055,-1.92149 -105.516,-1.97417Q-104.978,-2.02685 -104.521,-2.07367Z" fill="#09476b" fill-opacity="1" />
		<path d="M-97.9302,-3.10387 Q-98.3282,-3.41995 -98.9311,-3.64238Q-99.534,-3.86481 -100.201,-3.97017Q-100.716,-4.05212 -101.284,-3.88822Q-101.852,-3.72433 -102.262,-3.40825Q-102.87,-2.88144 -103.333,-2.22001Q-103.795,-1.55858 -104.111,-0.821051Q-104.427,-0.0835244 -104.591,0.694976Q-104.755,1.47348 -104.767,2.22271Q-104.779,2.97194 -104.638,3.65093Q-104.498,4.32993 -104.217,4.86844Q-104.041,5.19623 -103.737,5.45378Q-103.432,5.71133 -103.116,5.87522Q-102.73,6.07423 -102.262,6.17374Q-101.793,6.27325 -101.349,6.32008Q-100.681,6.39032 -100.166,6.2674Q-99.6511,6.14448 -99.1828,5.78157Q-98.4921,5.17281 -98.018,4.29481Q-97.5439,3.4168 -97.2688,2.42758Q-96.9937,1.43836 -96.9234,0.437427Q-96.8532,-0.563502 -96.982,-1.4181Q-97.0756,-1.93319 -97.2805,-2.33708Q-97.4853,-2.74096 -97.9302,-3.10387Z M-99.815,-1.93319 Q-99.5809,-1.86295 -99.4696,-1.44736Q-99.3584,-1.03177 -99.3584,-0.446434Q-99.3584,0.127197 -99.4521,0.78863Q-99.5457,1.45006 -99.6979,2.00028Q-99.8735,2.66757 -100.114,3.23534Q-100.353,3.80312 -100.623,4.18945Q-100.892,4.57577 -101.161,4.76308Q-101.431,4.95039 -101.676,4.86844Q-101.946,4.78649 -102.086,4.42358Q-102.227,4.06067 -102.25,3.55143Q-102.273,3.04218 -102.203,2.45099Q-102.133,1.8598 -101.969,1.30958Q-101.805,0.747656 -101.542,0.144758Q-101.278,-0.458141 -100.974,-0.949825Q-100.67,-1.44151 -100.365,-1.72833Q-100.061,-2.01514 -99.815,-1.93319Z" fill="#09476b" fill-opacity="1" />
		<path d="M-93.9499,0.419867 Q-93.7743,1.59054 -93.5577,2.69098Q-93.3411,3.79142 -93.107,4.6343Q-93.0485,4.83332 -92.9958,4.96209Q-92.9431,5.09087 -92.8729,5.17867Q-92.8026,5.26647 -92.709,5.31915Q-92.6153,5.37183 -92.4866,5.41866Q-92.1353,5.53572 -91.6671,5.62938Q-91.5149,5.6645 -91.4212,5.65864Q-91.3276,5.65279 -91.269,5.61767Q-91.2105,5.58255 -91.1695,5.50646Q-91.1286,5.43036 -91.07,5.30159Q-90.8827,4.89185 -90.5725,4.27725Q-90.2623,3.66264 -89.8935,2.97194Q-89.5247,2.28124 -89.1326,1.56713Q-88.7404,0.853017 -88.3892,0.244265Q-88.5882,0.934964 -88.7579,1.67249Q-88.9277,2.41002 -89.0682,3.08316Q-89.2087,3.7563 -89.314,4.31237Q-89.4194,4.86844 -89.4662,5.21964Q-89.5247,5.51231 -89.4369,5.68791Q-89.3491,5.86351 -89.0799,5.99229Q-88.8692,6.10936 -88.5882,6.1913Q-88.3072,6.27325 -88.038,6.33178Q-87.7336,6.40202 -87.6282,6.30837Q-87.5229,6.21472 -87.4409,6.00399Q-87.3473,5.59426 -87.1834,4.9738Q-87.0195,4.35334 -86.8146,3.61581Q-86.6098,2.87829 -86.3815,2.07052Q-86.1532,1.26275 -85.9249,0.4784Q-85.6966,-0.305953 -85.4742,-1.02007Q-85.2518,-1.73418 -85.0762,-2.2844Q-84.9474,-2.67072 -85.0352,-2.8873Q-85.123,-3.10387 -85.4625,-3.26776Q-85.9776,-3.5019 -86.5102,-3.6775Q-87.0429,-3.8531 -87.5229,-3.98188Q-87.9326,-4.09895 -88.196,-4.07553Q-88.4594,-4.05212 -88.6701,-3.87066Q-88.8809,-3.68921 -89.0799,-3.34386Q-89.2789,-2.99851 -89.5482,-2.46Q-89.8174,-1.99173 -90.1042,-1.46492Q-90.391,-0.938118 -90.6603,-0.411314Q-90.9296,0.115491 -91.1812,0.618882Q-91.4329,1.12227 -91.6203,1.54372Q-91.8076,0.337919 -91.9129,-0.35278Q-92.0183,-1.04348 -92.071,-1.4181Q-92.1236,-1.79271 -92.1412,-1.93905Q-92.1588,-2.08538 -92.1588,-2.19074Q-92.2056,-2.41317 -92.2466,-2.58877Q-92.2875,-2.76437 -92.3812,-2.91071Q-92.4748,-3.05704 -92.6387,-3.17996Q-92.8026,-3.30289 -93.0836,-3.40825Q-93.5285,-3.57214 -93.9675,-3.68921Q-94.4065,-3.80628 -95.0386,-3.89993Q-95.4484,-3.95846 -95.6415,-3.85896Q-95.8347,-3.75945 -95.94,-3.36142Q-96.0454,-2.8112 -96.1566,-2.09123Q-96.2678,-1.37127 -96.3791,-0.563502Q-96.4903,0.244265 -96.5839,1.07545Q-96.6776,1.90663 -96.7537,2.67927Q-96.8298,3.45192 -96.8707,4.11335Q-96.9117,4.77478 -96.9117,5.23135Q-96.9351,5.53572 -96.8298,5.69962Q-96.7244,5.86351 -96.4317,6.00399Q-96.1976,6.12106 -95.9225,6.20886Q-95.6474,6.29666 -95.3781,6.3552Q-95.0972,6.41373 -94.9918,6.34934Q-94.8864,6.28496 -94.8396,6.07423Q-94.7928,5.57084 -94.705,4.92697Q-94.6172,4.2831 -94.5001,3.54557Q-94.383,2.80805 -94.2426,2.01199Q-94.1021,1.21593 -93.9499,0.419867Z" fill="#09476b" fill-opacity="1" />
		<path d="M-75.5469,3.68605 Q-76.659,3.36997 -77.3497,4.07238Q-78.3097,5.05575 -78.7779,4.90356Q-79.0238,4.83332 -79.1525,4.50553Q-79.2813,4.17774 -79.3047,3.70361Q-79.3281,3.22949 -79.2521,2.65001Q-79.176,2.07052 -79.0238,1.48518Q-78.8599,0.923258 -78.5731,0.267679Q-78.2862,-0.3879 -77.9585,-0.932265Q-77.6307,-1.47663 -77.3146,-1.81613Q-76.9985,-2.15562 -76.7644,-2.08538Q-76.5302,-1.99173 -76.4834,-1.68735Q-76.4366,-1.38298 -76.4483,-1.00836Q-76.4483,-0.797637 -76.4132,-0.551795Q-76.3663,-0.259126 -76.261,-0.0366973Q-76.1556,0.185731 -75.98,0.355479Q-75.8044,0.525227 -75.5352,0.648149Q-75.2659,0.77107 -74.8913,0.84131Q-74.6923,0.87643 -74.5752,0.864724Q-74.4581,0.853017 -74.3937,0.80619Q-74.3294,0.759363 -74.2942,0.677415Q-74.2591,0.595468 -74.224,0.501814Q-74.1538,0.291092 -74.0952,0.0276899Q-74.0367,-0.235712 -74.0016,-0.522528Q-73.9664,-0.809344 -73.9489,-1.10201Q-73.9313,-1.39468 -73.943,-1.66394Q-73.9547,-1.89807 -73.9899,-2.10294Q-74.025,-2.30781 -74.1128,-2.49512Q-74.2006,-2.68243 -74.3469,-2.86388Q-74.4933,-3.04534 -74.7157,-3.23264Q-74.9498,-3.38483 -75.2425,-3.53117Q-75.5352,-3.6775 -75.8629,-3.80042Q-76.1907,-3.92334 -76.5419,-4.01114Q-76.8931,-4.09895 -77.2209,-4.13407Q-77.6658,-4.16919 -78.1692,-4.04041Q-78.6726,-3.91164 -79.1643,-3.49019Q-79.773,-2.96339 -80.2471,-2.26684Q-80.7213,-1.57028 -81.0607,-0.78593Q-81.4002,-0.00157702 -81.5934,0.82375Q-81.7866,1.64908 -81.8217,2.42758Q-81.8568,3.20608 -81.7339,3.89092Q-81.611,4.57577 -81.3066,5.07916Q-81.131,5.40695 -80.8149,5.65279Q-80.4988,5.89863 -80.1827,6.02741Q-79.8315,6.14448 -79.3867,6.2791Q-78.9418,6.41373 -78.3916,6.44885Q-78.1341,6.47226 -77.8589,6.44885Q-77.5838,6.42544 -77.3321,6.3669Q-77.0804,6.30837 -76.8522,6.21472Q-76.6239,6.12106 -76.46,6.0157Q-76.1322,5.78157 -75.8044,5.43036Q-75.4766,5.07916 -75.2659,4.65772Q-75.0669,4.29481 -75.0844,4.04896Q-75.102,3.80312 -75.5469,3.68605Z" fill="#09476b" fill-opacity="1" />
		<path d="M-67.2468,-3.10387 Q-67.6448,-3.41995 -68.2477,-3.64238Q-68.8506,-3.86481 -69.5179,-3.97017Q-70.033,-4.05212 -70.6008,-3.88822Q-71.1685,-3.72433 -71.5783,-3.40825Q-72.187,-2.88144 -72.6494,-2.22001Q-73.1119,-1.55858 -73.4279,-0.821051Q-73.744,-0.0835244 -73.9079,0.694976Q-74.0718,1.47348 -74.0835,2.22271Q-74.0952,2.97194 -73.9547,3.65093Q-73.8143,4.32993 -73.5333,4.86844Q-73.3577,5.19623 -73.0533,5.45378Q-72.7489,5.71133 -72.4329,5.87522Q-72.0465,6.07423 -71.5783,6.17374Q-71.11,6.27325 -70.6651,6.32008Q-69.9979,6.39032 -69.4828,6.2674Q-68.9677,6.14448 -68.4994,5.78157Q-67.8087,5.17281 -67.3346,4.29481Q-66.8604,3.4168 -66.5853,2.42758Q-66.3102,1.43836 -66.24,0.437427Q-66.1697,-0.563502 -66.2985,-1.4181Q-66.3922,-1.93319 -66.597,-2.33708Q-66.8019,-2.74096 -67.2468,-3.10387Z M-69.1316,-1.93319 Q-68.8974,-1.86295 -68.7862,-1.44736Q-68.675,-1.03177 -68.675,-0.446434Q-68.675,0.127197 -68.7686,0.78863Q-68.8623,1.45006 -69.0145,2.00028Q-69.1901,2.66757 -69.4301,3.23534Q-69.6701,3.80312 -69.9393,4.18945Q-70.2086,4.57577 -70.4778,4.76308Q-70.7471,4.95039 -70.9929,4.86844Q-71.2622,4.78649 -71.4027,4.42358Q-71.5431,4.06067 -71.5666,3.55143Q-71.59,3.04218 -71.5197,2.45099Q-71.4495,1.8598 -71.2856,1.30958Q-71.1217,0.747656 -70.8583,0.144758Q-70.5949,-0.458141 -70.2905,-0.949825Q-69.9861,-1.44151 -69.6818,-1.72833Q-69.3774,-2.01514 -69.1316,-1.93319Z" fill="#09476b" fill-opacity="1" />
		<path d="M-65.2683,-3.12728 L-65.9473,4.30651 Q-65.9824,4.59918 -65.959,4.78649Q-65.9356,4.9738 -65.8595,5.10257Q-65.7834,5.23135 -65.6781,5.33086Q-65.5727,5.43036 -65.4556,5.53572Q-65.1395,5.76986 -64.8937,5.9279Q-64.6479,6.08594 -64.3201,6.24984Q-63.6645,6.56592 -63.0674,6.3552Q-61.8968,6.02741 -60.9719,5.47719Q-60.0471,4.92697 -59.374,4.23627Q-58.7008,3.54557 -58.2794,2.76122Q-57.8579,1.97687 -57.6882,1.18666Q-57.5184,0.396453 -57.6004,-0.35278Q-57.6823,-1.10201 -58.0101,-1.73418Q-58.3964,-2.53024 -58.9584,-3.01022Q-59.5203,-3.49019 -60.1817,-3.73018Q-60.8432,-3.97017 -61.5514,-3.99944Q-62.2597,-4.0287 -62.9387,-3.91749Q-63.6177,-3.80628 -64.2206,-3.5897Q-64.8235,-3.37313 -65.2683,-3.12728Z M-63.6996,4.51723 Q-63.4069,2.99536 -63.0909,1.50274Q-62.7748,0.0101297 -62.365,-1.52346Q-61.6041,-1.7693 -61.0773,-1.57028Q-60.5505,-1.37127 -60.3398,-0.973239Q-60.129,-0.575209 -60.1759,0.138904Q-60.211,0.654002 -60.4217,1.25105Q-60.6324,1.84809 -61.0539,2.44514Q-61.4753,3.04218 -62.1309,3.58655Q-62.7865,4.13091 -63.6996,4.51723Z" fill="#09476b" fill-opacity="1" />
		<path d="M-56.3946,-3.19752 L-57.5067,4.58748 Q-57.5301,4.90356 -57.4189,5.12599Q-57.3077,5.34842 -57.1087,5.51231Q-56.8629,5.72303 -56.6814,5.85766Q-56.5,5.99229 -56.3009,6.12106Q-56.1253,6.23813 -55.8853,6.30252Q-55.6454,6.3669 -55.1771,6.24984Q-54.4747,6.12106 -53.702,5.96887Q-52.9294,5.81669 -52.1802,5.6762Q-51.8641,5.61767 -51.8055,5.52987Q-51.747,5.44207 -51.8055,5.20793Q-51.8992,4.99721 -51.9753,4.79234Q-52.0514,4.58748 -52.1919,4.35334Q-52.3206,4.14262 -52.5021,4.07238Q-52.6835,4.00214 -53.0113,4.02555Q-53.5967,4.06067 -54.0942,4.1192Q-54.5917,4.17774 -55.142,4.27139Q-55.0483,3.9436 -54.9664,3.60996Q-54.8844,3.27632 -54.7908,2.9017Q-54.1118,2.76122 -53.3801,2.64415Q-52.6484,2.52708 -51.946,2.39831Q-51.6182,2.32807 -51.5421,2.23442Q-51.466,2.14076 -51.5597,1.87151Q-51.6182,1.63737 -51.6943,1.40909Q-51.7704,1.18081 -51.9109,0.946671Q-52.0397,0.712536 -52.227,0.642295Q-52.4143,0.572055 -52.7421,0.583761Q-53.1401,0.595468 -53.4913,0.618882Q-53.8425,0.642295 -54.1937,0.689122Q-54.0064,0.0686636 -53.8542,-0.499115Q-53.702,-1.06689 -53.5264,-1.5937Q-52.6953,-1.71076 -51.946,-1.79271Q-51.1968,-1.87466 -50.4944,-1.95661Q-50.1549,-2.00343 -50.0612,-2.1088Q-49.9676,-2.21416 -50.0144,-2.51853Q-50.0729,-2.78779 -50.1315,-3.01607Q-50.19,-3.24435 -50.3422,-3.52531Q-50.5295,-4.05212 -51.1968,-4.04041Q-51.8992,-4.017 -52.6075,-3.9292Q-53.3157,-3.8414 -53.9889,-3.72433Q-54.662,-3.60726 -55.2766,-3.46678Q-55.8912,-3.3263 -56.3946,-3.19752Z" fill="#09476b" fill-opacity="1" />
		<path d="M-48.0008,3.40509 Q-47.6965,3.77971 -47.3218,4.14847Q-46.9472,4.51723 -46.5726,4.85673Q-46.198,5.19623 -45.8468,5.47719Q-45.4956,5.75815 -45.2263,5.94546Q-44.8166,6.1913 -44.5064,6.22057Q-44.1961,6.24984 -43.9386,6.1796Q-43.7279,6.14448 -43.5815,6.11521Q-43.4352,6.08594 -43.2245,5.92205Q-43.0489,5.79327 -43.0255,5.6762Q-43.002,5.55914 -43.2362,5.36012Q-43.5289,5.12599 -43.8625,4.8099Q-44.1961,4.49382 -44.5356,4.15433Q-44.8751,3.81483 -45.1971,3.47533Q-45.519,3.13584 -45.7883,2.83146Q-44.4771,2.24612 -43.5347,1.56713Q-42.5923,0.888137 -42.1826,0.0803703Q-41.9133,-0.423021 -42.0655,-1.20737Q-42.2528,-1.9449 -42.5865,-2.45414Q-42.9201,-2.96339 -43.3298,-3.40825Q-43.8449,-3.91164 -44.5298,-4.02285Q-45.2146,-4.13407 -45.9814,-3.99944Q-46.7482,-3.86481 -47.5384,-3.54873Q-48.3286,-3.23264 -49.0544,-2.90486Q-49.2066,-2.82291 -49.3471,-2.48926Q-49.4876,-2.15562 -49.6047,-1.64638Q-49.7217,-1.13713 -49.8271,-0.499115Q-49.9325,0.138904 -50.0203,0.817897Q-50.1081,1.49689 -50.1842,2.17588Q-50.2602,2.85487 -50.3188,3.44607Q-50.3773,4.03726 -50.4183,4.50553Q-50.4593,4.9738 -50.4827,5.21964Q-50.5061,5.52402 -50.4241,5.70547Q-50.3422,5.88693 -50.1198,6.0157Q-49.8973,6.13277 -49.6515,6.1796Q-49.4057,6.22642 -49.0896,6.30837Q-48.8203,6.3669 -48.7208,6.30837Q-48.6213,6.24984 -48.5628,6.06253Q-48.434,5.43036 -48.2994,4.77478Q-48.1647,4.1192 -48.0008,3.40509Z M-46.7482,-1.34786 Q-46.2917,-1.57028 -45.8819,-1.65223Q-45.4722,-1.73418 -45.1327,-1.73418Q-44.442,-1.73418 -44.3015,-1.40639Q-44.2313,-1.20737 -44.4186,-0.844464Q-44.6059,-0.481554 -45.0273,-0.077671Q-45.4488,0.326212 -46.0751,0.718389Q-46.7014,1.11057 -47.5092,1.37982Q-47.2867,0.607175 -47.1111,-0.0718176Q-46.9355,-0.75081 -46.7482,-1.34786Z" fill="#09476b" fill-opacity="1" />
		<path d="M-35.2756,-3.10387 Q-35.6736,-3.41995 -36.2765,-3.64238Q-36.8794,-3.86481 -37.5467,-3.97017Q-38.0618,-4.05212 -38.6296,-3.88822Q-39.1974,-3.72433 -39.6071,-3.40825Q-40.2158,-2.88144 -40.6783,-2.22001Q-41.1407,-1.55858 -41.4568,-0.821051Q-41.7728,-0.0835244 -41.9367,0.694976Q-42.1006,1.47348 -42.1123,2.22271Q-42.124,2.97194 -41.9836,3.65093Q-41.8431,4.32993 -41.5621,4.86844Q-41.3865,5.19623 -41.0821,5.45378Q-40.7778,5.71133 -40.4617,5.87522Q-40.0754,6.07423 -39.6071,6.17374Q-39.1388,6.27325 -38.694,6.32008Q-38.0267,6.39032 -37.5116,6.2674Q-36.9965,6.14448 -36.5282,5.78157Q-35.8375,5.17281 -35.3634,4.29481Q-34.8893,3.4168 -34.6142,2.42758Q-34.339,1.43836 -34.2688,0.437427Q-34.1986,-0.563502 -34.3273,-1.4181Q-34.421,-1.93319 -34.6259,-2.33708Q-34.8307,-2.74096 -35.2756,-3.10387Z M-37.1604,-1.93319 Q-36.9262,-1.86295 -36.815,-1.44736Q-36.7038,-1.03177 -36.7038,-0.446434Q-36.7038,0.127197 -36.7975,0.78863Q-36.8911,1.45006 -37.0433,2.00028Q-37.2189,2.66757 -37.4589,3.23534Q-37.6989,3.80312 -37.9681,4.18945Q-38.2374,4.57577 -38.5067,4.76308Q-38.7759,4.95039 -39.0217,4.86844Q-39.291,4.78649 -39.4315,4.42358Q-39.572,4.06067 -39.5954,3.55143Q-39.6188,3.04218 -39.5486,2.45099Q-39.4783,1.8598 -39.3144,1.30958Q-39.1505,0.747656 -38.8871,0.144758Q-38.6237,-0.458141 -38.3193,-0.949825Q-38.015,-1.44151 -37.7106,-1.72833Q-37.4062,-2.01514 -37.1604,-1.93319Z" fill="#09476b" fill-opacity="1" />
		<path d="M-28.6027,3.9319 Q-28.5676,4.41187 -28.5325,4.81576Q-28.4974,5.21964 -28.4505,5.55914Q-28.4037,5.88693 -28.2925,6.0157Q-28.1813,6.14448 -27.9003,6.22642Q-27.6311,6.32008 -27.3735,6.33764Q-27.116,6.3552 -26.8116,6.3552Q-26.5072,6.3552 -26.4194,6.27325Q-26.3316,6.1913 -26.3316,5.98058Q-26.3433,4.9738 -26.3375,3.79727Q-26.3316,2.62074 -26.3082,1.45006Q-26.2848,0.279385 -26.238,-0.797637Q-26.1911,-1.87466 -26.1209,-2.70584Q-26.0858,-3.04534 -26.1853,-3.25606Q-26.2848,-3.46678 -26.6477,-3.59555Q-26.917,-3.6658 -27.1804,-3.74774Q-27.4438,-3.82969 -27.754,-3.89993Q-28.0642,-3.97017 -28.4388,-4.02285Q-28.8134,-4.07553 -29.2934,-4.09895Q-29.8436,-4.14577 -30.1246,-3.94676Q-30.4056,-3.74774 -30.5812,-3.43166Q-31.0729,-2.55365 -31.6172,-1.42395Q-32.1616,-0.294246 -32.6825,0.864724Q-33.2035,2.02369 -33.6542,3.11242Q-34.1049,4.20115 -34.3859,5.00892Q-34.4561,5.25476 -34.4503,5.4011Q-34.4444,5.54743 -34.3859,5.64108Q-34.3273,5.73474 -34.222,5.79913Q-34.1166,5.86351 -33.9761,5.95717Q-33.7888,6.05082 -33.6074,6.12692Q-33.4259,6.20301 -33.2737,6.26154Q-33.0045,6.3552 -32.8698,6.32008Q-32.7352,6.28496 -32.6416,6.08594Q-32.4777,5.71133 -32.3021,5.31915Q-32.1265,4.92697 -31.8923,4.47041Q-31.225,4.29481 -30.3529,4.17189Q-29.4807,4.04896 -28.6027,3.9319Z M-30.8387,2.29295 Q-30.2885,1.18081 -29.7441,0.144758Q-29.1998,-0.891291 -28.7315,-1.74589Q-28.7549,-0.809344 -28.7432,0.144758Q-28.7315,1.09886 -28.7081,2.05881Q-29.2466,2.09393 -29.7793,2.15247Q-30.3119,2.211 -30.8387,2.29295Z" fill="#09476b" fill-opacity="1" />
		<path d="M-24.8917,-3.12728 L-25.5707,4.30651 Q-25.6058,4.59918 -25.5824,4.78649Q-25.559,4.9738 -25.4829,5.10257Q-25.4068,5.23135 -25.3014,5.33086Q-25.1961,5.43036 -25.079,5.53572Q-24.7629,5.76986 -24.5171,5.9279Q-24.2712,6.08594 -23.9434,6.24984Q-23.2879,6.56592 -22.6908,6.3552Q-21.5201,6.02741 -20.5953,5.47719Q-19.6705,4.92697 -18.9973,4.23627Q-18.3242,3.54557 -17.9027,2.76122Q-17.4813,1.97687 -17.3115,1.18666Q-17.1418,0.396453 -17.2237,-0.35278Q-17.3057,-1.10201 -17.6335,-1.73418Q-18.0198,-2.53024 -18.5817,-3.01022Q-19.1437,-3.49019 -19.8051,-3.73018Q-20.4665,-3.97017 -21.1748,-3.99944Q-21.883,-4.0287 -22.562,-3.91749Q-23.241,-3.80628 -23.8439,-3.5897Q-24.4468,-3.37313 -24.8917,-3.12728Z M-23.323,4.51723 Q-23.0303,2.99536 -22.7142,1.50274Q-22.3981,0.0101297 -21.9884,-1.52346Q-21.2275,-1.7693 -20.7007,-1.57028Q-20.1739,-1.37127 -19.9631,-0.973239Q-19.7524,-0.575209 -19.7992,0.138904Q-19.8344,0.654002 -20.0451,1.25105Q-20.2558,1.84809 -20.6772,2.44514Q-21.0987,3.04218 -21.7543,3.58655Q-22.4098,4.13091 -23.323,4.51723Z" fill="#09476b" fill-opacity="1" />
		<path d="M115.319,48.5126 L57.7233,72.8063 L1.06581e-14,48.5126 L1.06581e-14,-14.7982 L57.7233,-39.0919 L115.319,-14.7982 Z" fill="#2c9bde" fill-opacity="1" />
		<path d="M115.319,10.9417 L57.7233,35.2354 L1.77636e-14,10.9417 L1.77636e-14,-52.3691 L57.7233,-76.6627 L115.319,-52.3691 Z" fill="#2c9bde" fill-opacity="1" />
		<path d="M23.771,33.963 Q24.1339,33.9396 24.1983,33.8401Q24.2627,33.7406 24.1924,33.4713Q24.1105,33.1669 23.9583,32.8508Q23.8061,32.5348 23.572,32.2655Q23.4549,32.1133 23.2968,32.0489Q23.1388,31.9845 22.7759,31.9845Q22.0852,32.008 21.213,32.0723Q20.3409,32.1367 19.4336,32.2304Q18.5263,32.324 17.6542,32.4411Q16.782,32.5582 16.0913,32.6987Q15.8689,32.7572 15.7987,32.845Q15.7284,32.9328 15.8689,33.202Q15.9977,33.4596 16.2025,33.8342Q16.4074,34.2088 16.6533,34.4547Q16.8874,34.7005 17.0747,34.7532Q17.262,34.8059 17.5547,34.7356Q17.7654,34.6771 18.0815,34.6361Q18.3976,34.5952 18.7371,34.5366Q18.5615,35.3327 18.3859,36.2634Q18.2103,37.1941 18.0639,38.1072Q17.9176,39.0203 17.8122,39.8398Q17.7069,40.6593 17.6717,41.2212Q17.6249,41.4436 17.6834,41.6017Q17.742,41.7597 17.8766,41.8768Q18.0112,41.9938 18.2103,42.0758Q18.4093,42.1577 18.6551,42.228Q18.901,42.2982 19.1,42.3567Q19.299,42.4153 19.4512,42.4211Q19.6034,42.427 19.6912,42.3743Q19.779,42.3216 19.8024,42.1577Q19.9663,41.3031 20.1828,40.3198Q20.3994,39.3364 20.6453,38.3003Q20.8911,37.2643 21.1545,36.2107Q21.4179,35.1571 21.6637,34.1737Q22.2374,34.1152 22.7759,34.0625Q23.3144,34.0098 23.771,33.963Z" fill="#1b3d51" fill-opacity="1" />
		<path d="M24.5085,32.8391 L23.3964,40.6241 Q23.3729,40.9402 23.4842,41.1627Q23.5954,41.3851 23.7944,41.549Q24.0402,41.7597 24.2217,41.8943Q24.4031,42.029 24.6021,42.1577Q24.7777,42.2748 25.0177,42.3392Q25.2577,42.4036 25.726,42.2865Q26.4284,42.1577 27.2011,42.0055Q27.9737,41.8534 28.7229,41.7129Q29.039,41.6543 29.0975,41.5665Q29.1561,41.4787 29.0975,41.2446Q29.0039,41.0339 28.9278,40.829Q28.8517,40.6241 28.7112,40.39Q28.5824,40.1793 28.401,40.109Q28.2195,40.0388 27.8917,40.0622Q27.3064,40.0973 26.8089,40.1559Q26.3113,40.2144 25.7611,40.3081Q25.8548,39.9803 25.9367,39.6466Q26.0187,39.313 26.1123,38.9384Q26.7913,38.7979 27.523,38.6808Q28.2547,38.5637 28.9571,38.435Q29.2849,38.3647 29.3609,38.2711Q29.437,38.1774 29.3434,37.9082Q29.2849,37.674 29.2088,37.4458Q29.1327,37.2175 28.9922,36.9833Q28.8634,36.7492 28.6761,36.679Q28.4888,36.6087 28.161,36.6204Q27.763,36.6321 27.4118,36.6555Q27.0606,36.679 26.7094,36.7258Q26.8967,36.1053 27.0489,35.5375Q27.2011,34.9698 27.3767,34.443Q28.2078,34.3259 28.9571,34.244Q29.7063,34.162 30.4087,34.0801Q30.7482,34.0332 30.8419,33.9279Q30.9355,33.8225 30.8887,33.5181Q30.8301,33.2489 30.7716,33.0206Q30.7131,32.7923 30.5609,32.5114Q30.3736,31.9845 29.7063,31.9963Q29.0039,32.0197 28.2956,32.1075Q27.5874,32.1953 26.9142,32.3123Q26.2411,32.4294 25.6265,32.5699Q25.0119,32.7104 24.5085,32.8391Z" fill="#1b3d51" fill-opacity="1" />
		<path d="M29.8117,39.8164 Q29.5658,39.9334 29.5892,40.1559Q29.6126,40.39 30.1277,40.8232Q31.076,41.7129 31.9716,42.0758Q32.8671,42.4387 33.8154,42.4153Q34.5178,42.4036 35.0212,42.2397Q35.5246,42.0758 35.8758,41.8299Q36.227,41.5841 36.4377,41.2973Q36.6484,41.0105 36.7655,40.7646Q36.9528,40.4134 36.8884,40.109Q36.824,39.8047 36.584,39.5296Q36.344,39.2544 35.9753,38.991Q35.6065,38.7276 35.1909,38.4584Q34.7753,38.1891 34.3539,37.9023Q33.9324,37.6155 33.5929,37.2877Q33.3237,37.0419 33.2534,36.7316Q33.1832,36.4214 33.2417,36.0995Q33.3003,35.7775 33.4642,35.4615Q33.6281,35.1454 33.8446,34.8703Q34.0612,34.5952 34.3012,34.3786Q34.5412,34.162 34.7402,34.0566Q34.9626,33.8927 35.0621,33.922Q35.1617,33.9513 35.1792,34.0976Q35.1968,34.244 35.1499,34.4898Q35.1031,34.7356 35.0387,35.0107Q34.9743,35.2859 34.91,35.5551Q34.8456,35.8244 34.8222,36.0351Q34.6934,37.0419 36.2972,37.5804Q36.5899,37.7092 36.7362,37.6448Q36.8825,37.5804 37.023,37.3462Q37.1518,37.1004 37.2747,36.7375Q37.3976,36.3746 37.5089,35.9766Q37.6201,35.5785 37.702,35.1922Q37.784,34.8059 37.8308,34.5015Q37.8308,34.3259 37.8249,34.121Q37.8191,33.9162 37.7664,33.7054Q37.7137,33.4947 37.585,33.2723Q37.4562,33.0499 37.222,32.8274Q36.8591,32.4996 36.3265,32.2187Q35.7938,31.9377 35.267,31.7504Q34.9158,31.645 34.588,31.6275Q34.2602,31.6099 33.9793,31.6568Q33.6983,31.7036 33.4759,31.8031Q33.2534,31.9026 33.113,32.008Q32.6798,32.2772 32.2642,32.6577Q31.8486,33.0382 31.5033,33.4772Q31.1579,33.9162 30.9062,34.3844Q30.6545,34.8527 30.5492,35.2741Q30.397,35.7541 30.4087,36.1873Q30.4204,36.6204 30.5609,37.0067Q30.7014,37.3931 30.9531,37.7267Q31.2048,38.0604 31.5326,38.3179Q31.8252,38.5637 32.1881,38.8037Q32.551,39.0437 32.914,39.2662Q33.2769,39.4886 33.5988,39.6993Q33.9207,39.91 34.1373,40.0856Q34.3539,40.2612 34.43,40.3959Q34.5061,40.5305 34.3656,40.6241Q34.0378,40.8934 33.3003,40.7178Q32.5627,40.5422 31.5677,39.9217Q31.3921,39.8047 31.1755,39.7403Q30.9589,39.6759 30.7248,39.6642Q30.4907,39.6525 30.2565,39.6876Q30.0224,39.7227 29.8117,39.8164Z" fill="#1b3d51" fill-opacity="1" />
		<path d="M45.3348,33.963 Q45.6977,33.9396 45.7621,33.8401Q45.8265,33.7406 45.7563,33.4713Q45.6743,33.1669 45.5221,32.8508Q45.37,32.5348 45.1358,32.2655Q45.0187,32.1133 44.8607,32.0489Q44.7027,31.9845 44.3398,31.9845Q43.6491,32.008 42.7769,32.0723Q41.9047,32.1367 40.9975,32.2304Q40.0902,32.324 39.218,32.4411Q38.3459,32.5582 37.6552,32.6987Q37.4328,32.7572 37.3625,32.845Q37.2923,32.9328 37.4328,33.202Q37.5615,33.4596 37.7664,33.8342Q37.9713,34.2088 38.2171,34.4547Q38.4513,34.7005 38.6386,34.7532Q38.8259,34.8059 39.1185,34.7356Q39.3293,34.6771 39.6453,34.6361Q39.9614,34.5952 40.3009,34.5366Q40.1253,35.3327 39.9497,36.2634Q39.7741,37.1941 39.6278,38.1072Q39.4814,39.0203 39.3761,39.8398Q39.2707,40.6593 39.2356,41.2212Q39.1888,41.4436 39.2473,41.6017Q39.3058,41.7597 39.4405,41.8768Q39.5751,41.9938 39.7741,42.0758Q39.9731,42.1577 40.219,42.228Q40.4648,42.2982 40.6638,42.3567Q40.8628,42.4153 41.015,42.4211Q41.1672,42.427 41.255,42.3743Q41.3428,42.3216 41.3662,42.1577Q41.5301,41.3031 41.7467,40.3198Q41.9633,39.3364 42.2091,38.3003Q42.455,37.2643 42.7184,36.2107Q42.9818,35.1571 43.2276,34.1737Q43.8012,34.1152 44.3398,34.0625Q44.8783,34.0098 45.3348,33.963Z" fill="#1b3d51" fill-opacity="1" />
		<path d="M51.9374,39.4418 Q52.2418,39.8164 52.6164,40.1851Q52.9911,40.5539 53.3657,40.8934Q53.7403,41.2329 54.0915,41.5139Q54.4427,41.7948 54.712,41.9821Q55.1217,42.228 55.4319,42.2572Q55.7421,42.2865 55.9997,42.2163Q56.2104,42.1811 56.3568,42.1519Q56.5031,42.1226 56.7138,41.9587Q56.8894,41.8299 56.9128,41.7129Q56.9362,41.5958 56.7021,41.3968Q56.4094,41.1627 56.0758,40.8466Q55.7421,40.5305 55.4027,40.191Q55.0632,39.8515 54.7412,39.512Q54.4193,39.1725 54.15,38.8681Q55.4612,38.2828 56.4036,37.6038Q57.346,36.9248 57.7557,36.117Q58.025,35.6136 57.8728,34.8293Q57.6855,34.0918 57.3518,33.5825Q57.0182,33.0733 56.6084,32.6284Q56.0934,32.125 55.4085,32.0138Q54.7237,31.9026 53.9569,32.0372Q53.1901,32.1719 52.3999,32.4879Q51.6097,32.804 50.8838,33.1318Q50.7317,33.2138 50.5912,33.5474Q50.4507,33.881 50.3336,34.3903Q50.2166,34.8995 50.1112,35.5375Q50.0058,36.1756 49.918,36.8546Q49.8302,37.5336 49.7541,38.2125Q49.678,38.8915 49.6195,39.4827Q49.561,40.0739 49.52,40.5422Q49.479,41.0105 49.4556,41.2563Q49.4322,41.5607 49.5141,41.7421Q49.5961,41.9236 49.8185,42.0524Q50.041,42.1694 50.2868,42.2163Q50.5326,42.2631 50.8487,42.345Q51.118,42.4036 51.2175,42.345Q51.317,42.2865 51.3755,42.0992Q51.5043,41.467 51.6389,40.8114Q51.7736,40.1559 51.9374,39.4418Z M53.1901,34.6888 Q53.6466,34.4664 54.0564,34.3844Q54.4661,34.3025 54.8056,34.3025Q55.4963,34.3025 55.6368,34.6303Q55.707,34.8293 55.5197,35.1922Q55.3324,35.5551 54.911,35.959Q54.4895,36.3629 53.8632,36.7551Q53.2369,37.1472 52.4291,37.4165Q52.6516,36.6438 52.8272,35.9648Q53.0028,35.2859 53.1901,34.6888Z" fill="#1b3d51" fill-opacity="1" />
		<path d="M58.2708,40.987 Q58.4581,41.3148 58.7157,41.5373Q58.9732,41.7597 59.2659,41.9236Q59.9449,42.2982 60.9985,42.3684Q61.5253,42.4036 61.935,42.3275Q62.3448,42.2514 62.7545,42.0524Q63.3281,41.7246 63.7964,40.9988Q64.2647,40.2729 64.6627,39.1959Q65.0607,38.1189 65.4178,36.7199Q65.7748,35.321 66.126,33.6469Q66.1612,33.4947 66.1729,33.3835Q66.1846,33.2723 66.1495,33.1786Q66.1143,33.085 66.0265,32.9972Q65.9387,32.9094 65.7748,32.804Q65.4588,32.6167 65.0783,32.4235Q64.6978,32.2304 64.3642,32.1426Q64.0305,32.0548 63.7964,32.125Q63.5623,32.1953 63.5389,32.5465Q63.3984,33.2723 63.2228,34.1971Q63.0472,35.122 62.8306,36.0761Q62.614,37.0302 62.3623,37.9316Q62.1106,38.833 61.8355,39.5179Q61.5604,40.2027 61.256,40.589Q60.9517,40.9753 60.6356,40.8934Q60.378,40.8232 60.2902,40.4602Q60.2024,40.0973 60.2317,39.5471Q60.261,38.9969 60.3839,38.3062Q60.5068,37.6155 60.6824,36.8897Q60.858,36.1639 61.0629,35.4556Q61.2677,34.7473 61.455,34.1386Q61.6541,33.4245 61.0219,32.9679Q60.7175,32.7455 60.3956,32.5816Q60.0737,32.4177 59.7224,32.3123Q59.3478,32.1836 59.1664,32.2538Q58.9849,32.324 58.8913,32.6635Q58.6805,33.4128 58.4874,34.203Q58.2942,34.9932 58.142,35.7775Q57.9898,36.5619 57.8962,37.3228Q57.8025,38.0838 57.8025,38.7628Q57.8025,39.4418 57.9138,40.0095Q58.025,40.5773 58.2708,40.987Z" fill="#1b3d51" fill-opacity="1" />
		<path d="M70.8322,38.353 Q70.7034,37.756 70.5746,37.1063Q70.4458,36.4565 70.3288,35.8419Q70.2117,35.2273 70.1181,34.7005Q70.0244,34.1737 69.9659,33.8342Q69.8956,33.3894 69.7434,33.1611Q69.5913,32.9328 69.2283,32.7806Q68.7835,32.5699 68.3737,32.4411Q67.964,32.3123 67.5309,32.1836Q67.168,32.0899 66.9572,32.1777Q66.7465,32.2655 66.6646,32.6167Q66.5358,33.2255 66.4012,34.0098Q66.2665,34.7942 66.1378,35.6371Q66.009,36.4799 65.8978,37.3287Q65.7866,38.1774 65.6988,38.9208Q65.611,39.6642 65.5583,40.2495Q65.5056,40.8349 65.4822,41.1509Q65.4588,41.4553 65.5466,41.6251Q65.6344,41.7948 65.8919,41.9236Q66.1612,42.0875 66.448,42.1636Q66.7348,42.2397 67.0158,42.3099Q67.3201,42.3919 67.4255,42.3392Q67.5309,42.2865 67.5777,42.0875Q67.6362,41.666 67.7357,41.0983Q67.8352,40.5305 67.9582,39.8691Q68.0811,39.2076 68.2157,38.4818Q68.3503,37.756 68.4791,37.0302Q68.6313,37.6389 68.8069,38.2418Q68.9825,38.8447 69.1581,39.4008Q69.3337,39.9569 69.5035,40.4368Q69.6732,40.9168 69.8371,41.2797Q70.0478,41.7831 70.5629,41.9821Q71.1248,42.1811 71.6634,42.2865Q72.2955,42.427 72.3658,41.9821Q72.5531,41.1627 72.8165,40.0798Q73.0799,38.9969 73.3667,37.8613Q73.6535,36.7258 73.9462,35.6254Q74.2388,34.5249 74.5081,33.6586Q74.6017,33.3542 74.5608,33.1377Q74.5198,32.9211 74.1803,32.7104Q73.9813,32.5816 73.8291,32.4996Q73.6769,32.4177 73.5423,32.3592Q73.4077,32.3006 73.2672,32.2655Q73.1267,32.2304 72.9511,32.1836Q72.5765,32.0899 72.3833,32.1719Q72.1902,32.2538 72.0965,32.5933Q71.757,33.8459 71.4117,35.3327Q71.0663,36.8194 70.8322,38.353Z" fill="#1b3d51" fill-opacity="1" />
		<path d="M79.0503,38.353 Q78.9215,37.756 78.7928,37.1063Q78.664,36.4565 78.5469,35.8419Q78.4299,35.2273 78.3362,34.7005Q78.2426,34.1737 78.184,33.8342Q78.1138,33.3894 77.9616,33.1611Q77.8094,32.9328 77.4465,32.7806Q77.0016,32.5699 76.5919,32.4411Q76.1822,32.3123 75.749,32.1836Q75.3861,32.0899 75.1754,32.1777Q74.9647,32.2655 74.8827,32.6167Q74.7539,33.2255 74.6193,34.0098Q74.4847,34.7942 74.3559,35.6371Q74.2271,36.4799 74.1159,37.3287Q74.0047,38.1774 73.9169,38.9208Q73.8291,39.6642 73.7764,40.2495Q73.7237,40.8349 73.7003,41.1509Q73.6769,41.4553 73.7647,41.6251Q73.8525,41.7948 74.1101,41.9236Q74.3793,42.0875 74.6661,42.1636Q74.953,42.2397 75.2339,42.3099Q75.5383,42.3919 75.6437,42.3392Q75.749,42.2865 75.7958,42.0875Q75.8544,41.666 75.9539,41.0983Q76.0534,40.5305 76.1763,39.8691Q76.2992,39.2076 76.4339,38.4818Q76.5685,37.756 76.6973,37.0302Q76.8494,37.6389 77.025,38.2418Q77.2007,38.8447 77.3763,39.4008Q77.5519,39.9569 77.7216,40.4368Q77.8914,40.9168 78.0552,41.2797Q78.266,41.7831 78.7811,41.9821Q79.343,42.1811 79.8815,42.2865Q80.5137,42.427 80.5839,41.9821Q80.7712,41.1627 81.0346,40.0798Q81.298,38.9969 81.5848,37.8613Q81.8717,36.7258 82.1643,35.6254Q82.457,34.5249 82.7262,33.6586Q82.8199,33.3542 82.7789,33.1377Q82.738,32.9211 82.3985,32.7104Q82.1994,32.5816 82.0473,32.4996Q81.8951,32.4177 81.7604,32.3592Q81.6258,32.3006 81.4853,32.2655Q81.3448,32.2304 81.1692,32.1836Q80.7946,32.0899 80.6015,32.1719Q80.4083,32.2538 80.3147,32.5933Q79.9752,33.8459 79.6298,35.3327Q79.2845,36.8194 79.0503,38.353Z" fill="#1b3d51" fill-opacity="1" />
		<path d="M83.1594,32.8391 L82.0473,40.6241 Q82.0238,40.9402 82.1351,41.1627Q82.2463,41.3851 82.4453,41.549Q82.6911,41.7597 82.8726,41.8943Q83.054,42.029 83.253,42.1577Q83.4287,42.2748 83.6686,42.3392Q83.9086,42.4036 84.3769,42.2865Q85.0793,42.1577 85.852,42.0055Q86.6246,41.8534 87.3738,41.7129Q87.6899,41.6543 87.7484,41.5665Q87.807,41.4787 87.7484,41.2446Q87.6548,41.0339 87.5787,40.829Q87.5026,40.6241 87.3621,40.39Q87.2334,40.1793 87.0519,40.109Q86.8704,40.0388 86.5427,40.0622Q85.9573,40.0973 85.4598,40.1559Q84.9622,40.2144 84.412,40.3081Q84.5057,39.9803 84.5876,39.6466Q84.6696,39.313 84.7632,38.9384Q85.4422,38.7979 86.1739,38.6808Q86.9056,38.5637 87.608,38.435Q87.9358,38.3647 88.0119,38.2711Q88.0879,38.1774 87.9943,37.9082Q87.9358,37.674 87.8597,37.4458Q87.7836,37.2175 87.6431,36.9833Q87.5143,36.7492 87.327,36.679Q87.1397,36.6087 86.8119,36.6204Q86.4139,36.6321 86.0627,36.6555Q85.7115,36.679 85.3603,36.7258Q85.5476,36.1053 85.6998,35.5375Q85.852,34.9698 86.0276,34.443Q86.8587,34.3259 87.608,34.244Q88.3572,34.162 89.0596,34.0801Q89.3991,34.0332 89.4928,33.9279Q89.5864,33.8225 89.5396,33.5181Q89.481,33.2489 89.4225,33.0206Q89.364,32.7923 89.2118,32.5114Q89.0245,31.9845 88.3572,31.9963Q87.6548,32.0197 86.9465,32.1075Q86.2383,32.1953 85.5651,32.3123Q84.892,32.4294 84.2774,32.5699Q83.6628,32.7104 83.1594,32.8391Z" fill="#1b3d51" fill-opacity="1" />
		<path d="M91.5531,39.4418 Q91.8575,39.8164 92.2321,40.1851Q92.6068,40.5539 92.9814,40.8934Q93.356,41.2329 93.7072,41.5139Q94.0584,41.7948 94.3277,41.9821Q94.7374,42.228 95.0476,42.2572Q95.3578,42.2865 95.6154,42.2163Q95.8261,42.1811 95.9725,42.1519Q96.1188,42.1226 96.3295,41.9587Q96.5051,41.8299 96.5285,41.7129Q96.5519,41.5958 96.3178,41.3968Q96.0251,41.1627 95.6915,40.8466Q95.3578,40.5305 95.0184,40.191Q94.6789,39.8515 94.3569,39.512Q94.035,39.1725 93.7657,38.8681Q95.0769,38.2828 96.0193,37.6038Q96.9617,36.9248 97.3714,36.117Q97.6407,35.6136 97.4885,34.8293Q97.3012,34.0918 96.9675,33.5825Q96.6339,33.0733 96.2241,32.6284Q95.709,32.125 95.0242,32.0138Q94.3394,31.9026 93.5726,32.0372Q92.8058,32.1719 92.0156,32.4879Q91.2254,32.804 90.4995,33.1318Q90.3474,33.2138 90.2069,33.5474Q90.0664,33.881 89.9493,34.3903Q89.8323,34.8995 89.7269,35.5375Q89.6215,36.1756 89.5337,36.8546Q89.4459,37.5336 89.3698,38.2125Q89.2937,38.8915 89.2352,39.4827Q89.1767,40.0739 89.1357,40.5422Q89.0947,41.0105 89.0713,41.2563Q89.0479,41.5607 89.1298,41.7421Q89.2118,41.9236 89.4342,42.0524Q89.6567,42.1694 89.9025,42.2163Q90.1483,42.2631 90.4644,42.345Q90.7337,42.4036 90.8332,42.345Q90.9327,42.2865 90.9912,42.0992Q91.12,41.467 91.2546,40.8114Q91.3893,40.1559 91.5531,39.4418Z M92.8058,34.6888 Q93.2623,34.4664 93.6721,34.3844Q94.0818,34.3025 94.4213,34.3025Q95.112,34.3025 95.2525,34.6303Q95.3227,34.8293 95.1354,35.1922Q94.9481,35.5551 94.5267,35.959Q94.1052,36.3629 93.4789,36.7551Q92.8526,37.1472 92.0448,37.4165Q92.2673,36.6438 92.4429,35.9648Q92.6185,35.2859 92.8058,34.6888Z" fill="#1b3d51" fill-opacity="1" />
		<path d="M12.5842,18.8534 Q12.9471,18.7832 12.988,18.7012Q13.029,18.6193 12.9471,18.3734Q12.9002,18.1744 12.8124,17.9578Q12.7246,17.7413 12.5842,17.5305Q12.4437,17.3081 12.2739,17.2437Q12.1042,17.1793 11.7764,17.2027Q11.2262,17.2379 10.7579,17.2847Q10.2896,17.3315 9.75112,17.4252Q9.93843,16.6174 10.155,15.7335Q10.3716,14.8497 10.6116,13.96Q10.8516,13.0703 11.0915,12.2274Q11.3315,11.3845 11.5657,10.6821Q11.671,10.3777 11.5949,10.2138Q11.5188,10.0499 11.2145,9.82749Q10.8984,9.61676 10.4769,9.44702Q10.0555,9.27727 9.69259,9.18361Q9.32968,9.07825 9.14822,9.14264Q8.96677,9.20703 8.8497,9.54652Q8.6858,10.1436 8.51606,10.8577Q8.34631,11.5718 8.18241,12.3444Q8.01852,13.1171 7.87804,13.8956Q7.73756,14.6741 7.62049,15.3999Q7.50342,16.1257 7.42147,16.752Q7.33953,17.3784 7.30441,17.8349Q7.25758,18.1276 7.36294,18.3325Q7.4683,18.5373 7.66731,18.7012Q7.93657,18.9119 8.10047,19.0466Q8.26436,19.1812 8.46337,19.31Q8.54532,19.3685 8.63312,19.4153Q8.72092,19.4622 8.8497,19.4914Q8.97847,19.5207 9.15407,19.509Q9.32968,19.4973 9.58722,19.427Q10.2896,19.2866 11.0681,19.1402Q11.8466,18.9939 12.5842,18.8534Z" fill="#1b3d51" fill-opacity="1" />
		<path d="M19.2102,17.1208 Q19.2453,17.6008 19.2804,18.0047Q19.3155,18.4085 19.3624,18.748Q19.4092,19.0758 19.5204,19.2046Q19.6316,19.3334 19.9126,19.4153Q20.1818,19.509 20.4394,19.5265Q20.6969,19.5441 21.0013,19.5441Q21.3057,19.5441 21.3935,19.4622Q21.4813,19.3802 21.4813,19.1695Q21.4696,18.1627 21.4754,16.9862Q21.4813,15.8096 21.5047,14.639Q21.5281,13.4683 21.575,12.3913Q21.6218,11.3142 21.692,10.4831Q21.7271,10.1436 21.6276,9.93285Q21.5281,9.72212 21.1652,9.59335Q20.896,9.52311 20.6326,9.44116Q20.3692,9.35922 20.0589,9.28897Q19.7487,9.21873 19.3741,9.16605Q18.9995,9.11337 18.5195,9.08996Q17.9693,9.04313 17.6883,9.24215Q17.4073,9.44116 17.2317,9.75725Q16.7401,10.6353 16.1957,11.765Q15.6513,12.8947 15.1304,14.0536Q14.6094,15.2126 14.1587,16.3013Q13.708,17.3901 13.427,18.1978Q13.3568,18.4437 13.3627,18.59Q13.3685,18.7363 13.427,18.83Q13.4856,18.9236 13.5909,18.988Q13.6963,19.0524 13.8368,19.1461Q14.0241,19.2397 14.2055,19.3158Q14.387,19.3919 14.5392,19.4504Q14.8084,19.5441 14.9431,19.509Q15.0777,19.4739 15.1714,19.2748Q15.3352,18.9002 15.5108,18.5081Q15.6865,18.1159 15.9206,17.6593Q16.5879,17.4837 17.46,17.3608Q18.3322,17.2379 19.2102,17.1208Z M16.9742,15.4819 Q17.5244,14.3697 18.0688,13.3337Q18.6131,12.2976 19.0814,11.443Q19.058,12.3796 19.0697,13.3337Q19.0814,14.2878 19.1048,15.2477Q18.5663,15.2828 18.0337,15.3414Q17.501,15.3999 16.9742,15.4819Z" fill="#1b3d51" fill-opacity="1" />
		<path d="M27.323,15.5053 Q27.1942,14.9082 27.0654,14.2585Q26.9367,13.6088 26.8196,12.9942Q26.7025,12.3796 26.6089,11.8528Q26.5152,11.326 26.4567,10.9865Q26.3864,10.5416 26.2342,10.3133Q26.0821,10.085 25.7191,9.93285Q25.2743,9.72212 24.8646,9.59335Q24.4548,9.46458 24.0217,9.3358Q23.6588,9.24215 23.448,9.32995Q23.2373,9.41775 23.1554,9.76895Q23.0266,10.3777 22.892,11.1621Q22.7573,11.9464 22.6286,12.7893Q22.4998,13.6322 22.3886,14.4809Q22.2774,15.3297 22.1896,16.073Q22.1018,16.8164 22.0491,17.4018Q21.9964,17.9871 21.973,18.3032Q21.9496,18.6076 22.0374,18.7773Q22.1252,18.9471 22.3827,19.0758Q22.652,19.2397 22.9388,19.3158Q23.2256,19.3919 23.5066,19.4622Q23.8109,19.5441 23.9163,19.4914Q24.0217,19.4387 24.0685,19.2397Q24.127,18.8183 24.2265,18.2505Q24.326,17.6827 24.449,17.0213Q24.5719,16.3599 24.7065,15.634Q24.8411,14.9082 24.9699,14.1824Q25.1221,14.7912 25.2977,15.3941Q25.4733,15.997 25.6489,16.553Q25.8245,17.1091 25.9943,17.5891Q26.164,18.069 26.3279,18.432Q26.5386,18.9354 27.0537,19.1344Q27.6156,19.3334 28.1542,19.4387Q28.7863,19.5792 28.8566,19.1344Q29.0439,18.3149 29.3073,17.232Q29.5707,16.1491 29.8575,15.0136Q30.1443,13.878 30.437,12.7776Q30.7296,11.6772 30.9989,10.8109Q31.0926,10.5065 31.0516,10.2899Q31.0106,10.0733 30.6711,9.86261Q30.4721,9.73383 30.3199,9.65188Q30.1677,9.56994 30.0331,9.5114Q29.8985,9.45287 29.758,9.41775Q29.6175,9.38263 29.4419,9.3358Q29.0673,9.24215 28.8741,9.32409Q28.681,9.40604 28.5873,9.74554Q28.2478,10.9982 27.9025,12.4849Q27.5571,13.9717 27.323,15.5053Z" fill="#1b3d51" fill-opacity="1" />
		<path d="M37.9059,13.7375 Q37.9527,13.5502 37.9937,13.2693Q38.0347,12.9883 38.0639,12.6839Q38.0932,12.3796 38.0991,12.0752Q38.1049,11.7708 38.0932,11.525Q38.0347,11.0567 37.8708,10.6821Q37.7069,10.3075 37.3088,9.99138Q37.0981,9.81578 36.8347,9.66944Q36.5713,9.52311 36.2728,9.4119Q35.9743,9.30068 35.6582,9.21873Q35.3421,9.13679 35.0377,9.10167Q34.827,9.06655 34.5812,9.06655Q34.3353,9.06655 34.0836,9.10167Q33.8319,9.13679 33.5861,9.23044Q33.3403,9.32409 33.1295,9.48799Q32.474,9.96797 31.953,10.647Q31.4321,11.326 31.0516,12.1045Q30.6711,12.883 30.4487,13.7083Q30.2263,14.5336 30.1677,15.3297Q30.1092,16.1257 30.2263,16.834Q30.3433,17.5422 30.6477,18.069Q30.8116,18.3968 31.0984,18.6719Q31.3852,18.9471 31.6896,19.111Q32.5442,19.4856 33.4456,19.6026Q33.9607,19.6729 34.429,19.5968Q34.8973,19.5207 35.3187,19.2866Q35.9743,18.9002 36.5362,18.1861Q37.0981,17.472 37.5313,16.4184Q37.6366,16.114 37.6308,15.9033Q37.6249,15.6926 37.4259,15.4233Q37.3206,15.2828 37.1976,15.1189Q37.0747,14.955 36.9342,14.8029Q36.7235,14.5687 36.4777,14.5043Q36.2318,14.44 35.8338,14.4985Q35.4943,14.557 35.026,14.6097Q34.5578,14.6624 34.1246,14.756Q33.8905,14.7912 33.7032,14.8204Q33.5159,14.8497 33.3871,14.9024Q33.2583,14.955 33.2056,15.0429Q33.1529,15.1307 33.1998,15.2828Q33.4222,15.9501 33.8027,16.2311Q34.1831,16.512 34.8855,16.4769Q34.6982,16.8633 34.4875,17.1969Q34.2768,17.5305 34.0544,17.7647Q33.8319,17.9988 33.6037,18.1042Q33.3754,18.2095 33.1647,18.1393Q32.9188,18.0573 32.7783,17.7003Q32.6378,17.3432 32.6144,16.8398Q32.591,16.3364 32.6788,15.7453Q32.7666,15.1541 32.9656,14.5921Q33.1881,13.8897 33.5041,13.24Q33.8202,12.5903 34.1539,12.0986Q34.4875,11.6069 34.8095,11.3435Q35.1314,11.0801 35.3655,11.1504Q35.4826,11.1855 35.5236,11.3377Q35.5645,11.4898 35.6114,11.7123Q35.6231,11.8293 35.6348,11.9464Q35.6465,12.0635 35.6465,12.1923Q35.6348,12.321 35.6406,12.4322Q35.6465,12.5435 35.6699,12.6605Q35.7284,13.2576 36.1089,13.6205Q36.4894,13.9834 37.3088,14.1005Q37.6015,14.1239 37.7127,14.0478Q37.8239,13.9717 37.9059,13.7375Z" fill="#1b3d51" fill-opacity="1" />
		<path d="M38.6551,18.1393 Q38.8424,18.4671 39.1,18.6895Q39.3575,18.9119 39.6502,19.0758Q40.3292,19.4504 41.3828,19.5207Q41.9096,19.5558 42.3193,19.4797Q42.7291,19.4036 43.1388,19.2046Q43.7124,18.8768 44.1807,18.151Q44.649,17.4252 45.047,16.3482Q45.4451,15.2711 45.8021,13.8722Q46.1592,12.4732 46.5104,10.7991Q46.5455,10.647 46.5572,10.5357Q46.5689,10.4245 46.5338,10.3309Q46.4987,10.2372 46.4109,10.1494Q46.3231,10.0616 46.1592,9.95626Q45.8431,9.76895 45.4626,9.57579Q45.0821,9.38263 44.7485,9.29483Q44.4149,9.20703 44.1807,9.27727Q43.9466,9.34751 43.9232,9.69871Q43.7827,10.4245 43.6071,11.3494Q43.4315,12.2742 43.2149,13.2283Q42.9983,14.1824 42.7466,15.0838Q42.4949,15.9852 42.2198,16.6701Q41.9447,17.3549 41.6404,17.7413Q41.336,18.1276 41.0199,18.0456Q40.7623,17.9754 40.6745,17.6125Q40.5867,17.2496 40.616,16.6994Q40.6453,16.1491 40.7682,15.4584Q40.8911,14.7677 41.0667,14.0419Q41.2423,13.3161 41.4472,12.6078Q41.6521,11.8996 41.8394,11.2908Q42.0384,10.5767 41.4062,10.1202Q41.1018,9.89773 40.7799,9.73383Q40.458,9.56994 40.1068,9.46458Q39.7321,9.3358 39.5507,9.40604Q39.3692,9.47628 39.2756,9.81578Q39.0649,10.565 38.8717,11.3552Q38.6785,12.1454 38.5264,12.9298Q38.3742,13.7141 38.2805,14.4751Q38.1869,15.236 38.1869,15.915Q38.1869,16.594 38.2981,17.1618Q38.4093,17.7296 38.6551,18.1393Z" fill="#1b3d51" fill-opacity="1" />
		<path d="M51.5092,17.1208 Q51.5443,17.6008 51.5794,18.0047Q51.6145,18.4085 51.6613,18.748Q51.7082,19.0758 51.8194,19.2046Q51.9306,19.3334 52.2116,19.4153Q52.4808,19.509 52.7384,19.5265Q52.9959,19.5441 53.3003,19.5441Q53.6047,19.5441 53.6925,19.4622Q53.7803,19.3802 53.7803,19.1695Q53.7686,18.1627 53.7744,16.9862Q53.7803,15.8096 53.8037,14.639Q53.8271,13.4683 53.8739,12.3913Q53.9208,11.3142 53.991,10.4831Q54.0261,10.1436 53.9266,9.93285Q53.8271,9.72212 53.4642,9.59335Q53.1949,9.52311 52.9315,9.44116Q52.6681,9.35922 52.3579,9.28897Q52.0477,9.21873 51.6731,9.16605Q51.2984,9.11337 50.8185,9.08996Q50.2682,9.04313 49.9873,9.24215Q49.7063,9.44116 49.5307,9.75725Q49.039,10.6353 48.4947,11.765Q47.9503,12.8947 47.4293,14.0536Q46.9084,15.2126 46.4577,16.3013Q46.007,17.3901 45.726,18.1978Q45.6558,18.4437 45.6616,18.59Q45.6675,18.7363 45.726,18.83Q45.7845,18.9236 45.8899,18.988Q45.9953,19.0524 46.1358,19.1461Q46.3231,19.2397 46.5045,19.3158Q46.686,19.3919 46.8382,19.4504Q47.1074,19.5441 47.242,19.509Q47.3767,19.4739 47.4703,19.2748Q47.6342,18.9002 47.8098,18.5081Q47.9854,18.1159 48.2196,17.6593Q48.8868,17.4837 49.759,17.3608Q50.6311,17.2379 51.5092,17.1208Z M49.2732,15.4819 Q49.8234,14.3697 50.3677,13.3337Q50.9121,12.2976 51.3804,11.443Q51.357,12.3796 51.3687,13.3337Q51.3804,14.2878 51.4038,15.2477Q50.8653,15.2828 50.3326,15.3414Q49.8,15.3999 49.2732,15.4819Z" fill="#1b3d51" fill-opacity="1" />
		<path d="M61.9867,13.7375 Q62.0335,13.5502 62.0745,13.2693Q62.1155,12.9883 62.1448,12.6839Q62.174,12.3796 62.1799,12.0752Q62.1857,11.7708 62.174,11.525Q62.1155,11.0567 61.9516,10.6821Q61.7877,10.3075 61.3897,9.99138Q61.1789,9.81578 60.9155,9.66944Q60.6521,9.52311 60.3536,9.4119Q60.0551,9.30068 59.739,9.21873Q59.4229,9.13679 59.1186,9.10167Q58.9078,9.06655 58.662,9.06655Q58.4161,9.06655 58.1645,9.10167Q57.9128,9.13679 57.6669,9.23044Q57.4211,9.32409 57.2104,9.48799Q56.5548,9.96797 56.0338,10.647Q55.5129,11.326 55.1324,12.1045Q54.7519,12.883 54.5295,13.7083Q54.3071,14.5336 54.2485,15.3297Q54.19,16.1257 54.3071,16.834Q54.4241,17.5422 54.7285,18.069Q54.8924,18.3968 55.1792,18.6719Q55.466,18.9471 55.7704,19.111Q56.625,19.4856 57.5264,19.6026Q58.0415,19.6729 58.5098,19.5968Q58.9781,19.5207 59.3995,19.2866Q60.0551,18.9002 60.617,18.1861Q61.1789,17.472 61.6121,16.4184Q61.7175,16.114 61.7116,15.9033Q61.7058,15.6926 61.5067,15.4233Q61.4014,15.2828 61.2785,15.1189Q61.1555,14.955 61.0151,14.8029Q60.8043,14.5687 60.5585,14.5043Q60.3126,14.44 59.9146,14.4985Q59.5751,14.557 59.1068,14.6097Q58.6386,14.6624 58.2054,14.756Q57.9713,14.7912 57.784,14.8204Q57.5967,14.8497 57.4679,14.9024Q57.3391,14.955 57.2864,15.0429Q57.2338,15.1307 57.2806,15.2828Q57.503,15.9501 57.8835,16.2311Q58.264,16.512 58.9664,16.4769Q58.7791,16.8633 58.5683,17.1969Q58.3576,17.5305 58.1352,17.7647Q57.9128,17.9988 57.6845,18.1042Q57.4562,18.2095 57.2455,18.1393Q56.9996,18.0573 56.8591,17.7003Q56.7187,17.3432 56.6953,16.8398Q56.6718,16.3364 56.7596,15.7453Q56.8474,15.1541 57.0465,14.5921Q57.2689,13.8897 57.585,13.24Q57.9011,12.5903 58.2347,12.0986Q58.5683,11.6069 58.8903,11.3435Q59.2122,11.0801 59.4463,11.1504Q59.5634,11.1855 59.6044,11.3377Q59.6454,11.4898 59.6922,11.7123Q59.7039,11.8293 59.7156,11.9464Q59.7273,12.0635 59.7273,12.1923Q59.7156,12.321 59.7215,12.4322Q59.7273,12.5435 59.7507,12.6605Q59.8093,13.2576 60.1897,13.6205Q60.5702,13.9834 61.3897,14.1005Q61.6823,14.1239 61.7936,14.0478Q61.9048,13.9717 61.9867,13.7375Z" fill="#1b3d51" fill-opacity="1" />
		<path d="M63.2745,9.99138 L62.1623,17.7764 Q62.1389,18.0925 62.2501,18.3149Q62.3613,18.5373 62.5603,18.7012Q62.8062,18.9119 62.9876,19.0466Q63.1691,19.1812 63.3681,19.31Q63.5437,19.427 63.7837,19.4914Q64.0237,19.5558 64.492,19.4387Q65.1944,19.31 65.967,19.1578Q66.7397,19.0056 67.4889,18.8651Q67.805,18.8066 67.8635,18.7188Q67.922,18.631 67.8635,18.3968Q67.7699,18.1861 67.6938,17.9812Q67.6177,17.7764 67.4772,17.5422Q67.3484,17.3315 67.167,17.2613Q66.9855,17.191 66.6577,17.2145Q66.0724,17.2496 65.5748,17.3081Q65.0773,17.3666 64.5271,17.4603Q64.6207,17.1325 64.7027,16.7989Q64.7846,16.4652 64.8783,16.0906Q65.5573,15.9501 66.2889,15.8331Q67.0206,15.716 67.723,15.5872Q68.0508,15.517 68.1269,15.4233Q68.203,15.3297 68.1094,15.0604Q68.0508,14.8263 67.9747,14.598Q67.8986,14.3697 67.7581,14.1356Q67.6294,13.9014 67.4421,13.8312Q67.2548,13.761 66.927,13.7727Q66.5289,13.7844 66.1777,13.8078Q65.8265,13.8312 65.4753,13.878Q65.6626,13.2576 65.8148,12.6898Q65.967,12.122 66.1426,11.5952Q66.9738,11.4781 67.723,11.3962Q68.4723,11.3142 69.1747,11.2323Q69.5142,11.1855 69.6078,11.0801Q69.7015,10.9747 69.6546,10.6704Q69.5961,10.4011 69.5376,10.1728Q69.479,9.94455 69.3269,9.66359Q69.1395,9.13679 68.4723,9.14849Q67.7699,9.17191 67.0616,9.25971Q66.3533,9.34751 65.6802,9.46458Q65.0071,9.58164 64.3925,9.72212Q63.7778,9.86261 63.2745,9.99138Z" fill="#1b3d51" fill-opacity="1" />
		<path d="M75.9412,16.8164 Q76.6436,16.6291 77.3636,16.3657Q78.0835,16.1023 78.7391,15.7745Q79.3947,15.4467 79.9507,15.0721Q80.5068,14.6975 80.9048,14.2995Q81.1507,14.0536 81.3556,13.7961Q81.5604,13.5385 81.6951,13.2576Q81.8297,12.9766 81.8707,12.6605Q81.9116,12.3444 81.8297,11.9815Q81.6424,11.244 81.3087,10.7348Q80.9751,10.2255 80.5771,9.78066Q80.2376,9.45287 79.7751,9.31824Q79.3127,9.18361 78.7742,9.19532Q78.2357,9.20703 77.6562,9.34165Q77.0767,9.47628 76.5031,9.68115Q75.9295,9.88602 75.391,10.1377Q74.8524,10.3894 74.4076,10.6235Q74.2905,10.6821 74.2027,11.203Q74.1149,11.724 74.0447,12.4966Q73.9744,13.2693 73.9042,14.1824Q73.834,15.0955 73.7637,15.9443Q73.6935,16.793 73.6057,17.4603Q73.5179,18.1276 73.4125,18.4085Q73.3423,18.7129 73.4535,18.9002Q73.5647,19.0875 73.7871,19.2105Q74.0096,19.3334 74.2964,19.4095Q74.5832,19.4856 74.8876,19.5675Q75.1919,19.626 75.2973,19.5675Q75.4027,19.509 75.4612,19.3217Q75.5549,18.7246 75.6778,18.1042Q75.8007,17.4837 75.9412,16.8164Z M76.4446,14.6156 Q76.6202,13.878 76.7899,13.199Q76.9597,12.52 77.147,11.8879Q77.5801,11.7006 77.9957,11.6069Q78.4113,11.5133 78.7449,11.5016Q79.0786,11.4898 79.2952,11.5659Q79.5117,11.642 79.5469,11.7825Q79.6405,12.0401 79.4766,12.4147Q79.3127,12.7893 78.9147,13.1932Q78.5167,13.5971 77.8962,13.9775Q77.2758,14.358 76.4446,14.6156Z" fill="#1b3d51" fill-opacity="1" />
		<path d="M86.9455,17.1208 Q86.9807,17.6008 87.0158,18.0047Q87.0509,18.4085 87.0977,18.748Q87.1446,19.0758 87.2558,19.2046Q87.367,19.3334 87.6479,19.4153Q87.9172,19.509 88.1747,19.5265Q88.4323,19.5441 88.7367,19.5441Q89.0411,19.5441 89.1289,19.4622Q89.2167,19.3802 89.2167,19.1695Q89.2049,18.1627 89.2108,16.9862Q89.2167,15.8096 89.2401,14.639Q89.2635,13.4683 89.3103,12.3913Q89.3571,11.3142 89.4274,10.4831Q89.4625,10.1436 89.363,9.93285Q89.2635,9.72212 88.9006,9.59335Q88.6313,9.52311 88.3679,9.44116Q88.1045,9.35922 87.7943,9.28897Q87.4841,9.21873 87.1094,9.16605Q86.7348,9.11337 86.2548,9.08996Q85.7046,9.04313 85.4237,9.24215Q85.1427,9.44116 84.9671,9.75725Q84.4754,10.6353 83.931,11.765Q83.3867,12.8947 82.8657,14.0536Q82.3448,15.2126 81.8941,16.3013Q81.4434,17.3901 81.1624,18.1978Q81.0922,18.4437 81.098,18.59Q81.1039,18.7363 81.1624,18.83Q81.2209,18.9236 81.3263,18.988Q81.4317,19.0524 81.5721,19.1461Q81.7594,19.2397 81.9409,19.3158Q82.1224,19.3919 82.2745,19.4504Q82.5438,19.5441 82.6784,19.509Q82.8131,19.4739 82.9067,19.2748Q83.0706,18.9002 83.2462,18.5081Q83.4218,18.1159 83.6559,17.6593Q84.3232,17.4837 85.1954,17.3608Q86.0675,17.2379 86.9455,17.1208Z M84.7095,15.4819 Q85.2598,14.3697 85.8041,13.3337Q86.3485,12.2976 86.8168,11.443Q86.7934,12.3796 86.8051,13.3337Q86.8168,14.2878 86.8402,15.2477Q86.3017,15.2828 85.769,15.3414Q85.2364,15.3999 84.7095,15.4819Z" fill="#1b3d51" fill-opacity="1" />
		<path d="M96.0183,16.875 Q94.9061,16.5589 94.2154,17.2613Q93.2555,18.2447 92.7872,18.0925Q92.5414,18.0222 92.4126,17.6944Q92.2838,17.3666 92.2604,16.8925Q92.237,16.4184 92.3131,15.8389Q92.3892,15.2594 92.5414,14.6741Q92.7053,14.1122 92.9921,13.4566Q93.2789,12.801 93.6067,12.2566Q93.9345,11.7123 94.2506,11.3728Q94.5666,11.0333 94.8008,11.1035Q95.0349,11.1972 95.0817,11.5016Q95.1286,11.8059 95.1169,12.1805Q95.1169,12.3913 95.152,12.6371Q95.1988,12.9298 95.3042,13.1522Q95.4095,13.3746 95.5851,13.5444Q95.7607,13.7141 96.03,13.8371Q96.2992,13.96 96.6739,14.0302Q96.8729,14.0653 96.9899,14.0536Q97.107,14.0419 97.1714,13.9951Q97.2358,13.9483 97.2709,13.8663Q97.306,13.7844 97.3411,13.6907Q97.4114,13.48 97.4699,13.2166Q97.5285,12.9532 97.5636,12.6664Q97.5987,12.3796 97.6163,12.0869Q97.6338,11.7942 97.6221,11.525Q97.6104,11.2908 97.5753,11.086Q97.5402,10.8811 97.4524,10.6938Q97.3646,10.5065 97.2182,10.325Q97.0719,10.1436 96.8495,9.95626Q96.6153,9.80407 96.3227,9.65774Q96.03,9.5114 95.7022,9.38848Q95.3744,9.26556 95.0232,9.17776Q94.672,9.08996 94.3442,9.05484Q93.8994,9.01972 93.396,9.14849Q92.8926,9.27727 92.4009,9.69871Q91.7921,10.2255 91.318,10.9221Q90.8439,11.6186 90.5044,12.403Q90.1649,13.1873 89.9717,14.0127Q89.7786,14.838 89.7435,15.6165Q89.7083,16.395 89.8313,17.0798Q89.9542,17.7647 90.2586,18.2681Q90.4342,18.5959 90.7502,18.8417Q91.0663,19.0875 91.3824,19.2163Q91.7336,19.3334 92.1785,19.468Q92.6233,19.6026 93.1735,19.6378Q93.4311,19.6612 93.7062,19.6378Q93.9813,19.6143 94.233,19.5558Q94.4847,19.4973 94.713,19.4036Q94.9413,19.31 95.1052,19.2046Q95.4329,18.9705 95.7607,18.6193Q96.0885,18.2681 96.2992,17.8466Q96.4983,17.4837 96.4807,17.2379Q96.4631,16.992 96.0183,16.875Z" fill="#1b3d51" fill-opacity="1" />
		<path d="M101.872,15.7862 Q102.387,15.2945 102.96,14.7326Q103.534,14.1707 104.067,13.6029Q104.599,13.0351 105.05,12.4908Q105.501,11.9464 105.77,11.5016Q105.992,11.1386 106.022,10.8928Q106.051,10.647 105.957,10.3894Q105.805,10.0733 105.635,9.80407Q105.466,9.53482 105.208,9.31239Q104.962,9.10167 104.763,9.10167Q104.588,9.10167 104.389,9.35922Q104.084,9.73383 103.61,10.2723Q103.136,10.8109 102.592,11.4079Q102.047,12.0049 101.474,12.6195Q100.9,13.2342 100.408,13.7727Q100.607,12.8595 100.783,12.0927Q100.959,11.326 101.134,10.7289Q101.181,10.5767 101.193,10.4655Q101.204,10.3543 101.158,10.2606Q101.111,10.167 101.005,10.0792Q100.9,9.99138 100.724,9.87431Q100.408,9.66359 99.981,9.47628Q99.5537,9.28897 99.1791,9.19532Q98.8396,9.08996 98.6523,9.16605Q98.465,9.24215 98.3713,9.56994Q98.2543,10.1202 98.1255,10.8694Q97.9967,11.6186 97.868,12.4557Q97.7392,13.2927 97.6221,14.1648Q97.505,15.037 97.4114,15.8331Q97.3177,16.6291 97.2592,17.2905Q97.2007,17.952 97.189,18.3617Q97.1655,18.7949 97.3997,19.0056Q97.6338,19.2163 98.1606,19.3568Q98.4182,19.427 98.6347,19.4914Q98.8513,19.5558 99.0035,19.5617Q99.1557,19.5675 99.2376,19.5031Q99.3196,19.4387 99.3196,19.2631Q99.4132,18.7363 99.5303,18.0925Q99.6474,17.4486 99.7996,16.6759Q100.045,17.0271 100.332,17.3842Q100.619,17.7413 100.882,18.0573Q101.146,18.3734 101.368,18.6193Q101.591,18.8651 101.719,19.0056Q102.036,19.3451 102.352,19.3919Q102.668,19.4387 102.972,19.3568Q103.171,19.3334 103.376,19.2748Q103.581,19.2163 103.733,19.1344Q103.991,19.0173 104.032,18.8944Q104.073,18.7715 103.874,18.5724Q103.686,18.3617 103.44,18.0456Q103.195,17.7296 102.925,17.3549Q102.656,16.9803 102.381,16.5764Q102.106,16.1726 101.872,15.7862Z" fill="#1b3d51" fill-opacity="1" />
		<path d="M23.78,-1.43466 Q23.9673,-1.10687 24.2248,-0.884446Q24.4824,-0.662018 24.775,-0.498123Q25.454,-0.123506 26.5076,-0.0532658Q27.0344,-0.0181455 27.4442,-0.0942395Q27.8539,-0.170333 28.2636,-0.369348Q28.8373,-0.697138 29.3056,-1.42296Q29.7738,-2.14878 30.1719,-3.2258Q30.5699,-4.30282 30.9269,-5.70178Q31.284,-7.10074 31.6352,-8.77481Q31.6703,-8.92699 31.682,-9.03821Q31.6937,-9.14942 31.6586,-9.24308Q31.6235,-9.33673 31.5357,-9.42453Q31.4479,-9.51233 31.284,-9.61769Q30.9679,-9.805 30.5874,-9.99816Q30.207,-10.1913 29.8733,-10.2791Q29.5397,-10.3669 29.3056,-10.2967Q29.0714,-10.2264 29.048,-9.87524Q28.9075,-9.14942 28.7319,-8.22459Q28.5563,-7.29975 28.3397,-6.34565Q28.1232,-5.39155 27.8715,-4.49013Q27.6198,-3.58871 27.3447,-2.90386Q27.0696,-2.21902 26.7652,-1.83269Q26.4608,-1.44637 26.1447,-1.52832Q25.8872,-1.59856 25.7994,-1.96147Q25.7116,-2.32438 25.7408,-2.8746Q25.7701,-3.42481 25.893,-4.11551Q26.0159,-4.80621 26.1916,-5.53203Q26.3672,-6.25785 26.572,-6.96611Q26.7769,-7.67437 26.9642,-8.28312Q27.1632,-8.99724 26.531,-9.4538Q26.2267,-9.67623 25.9047,-9.84012Q25.5828,-10.004 25.2316,-10.1094Q24.857,-10.2382 24.6755,-10.1679Q24.4941,-10.0977 24.4004,-9.75818Q24.1897,-9.00894 23.9965,-8.21874Q23.8034,-7.42853 23.6512,-6.64418Q23.499,-5.85982 23.4053,-5.09888Q23.3117,-4.33794 23.3117,-3.65895Q23.3117,-2.97996 23.4229,-2.41218Q23.5341,-1.8444 23.78,-1.43466Z" fill="#1b3d51" fill-opacity="1" />
		<path d="M36.3413,-4.06869 Q36.2125,-4.66573 36.0838,-5.31546Q35.955,-5.96518 35.8379,-6.57979Q35.7209,-7.19439 35.6272,-7.7212Q35.5336,-8.248 35.475,-8.5875Q35.4048,-9.03236 35.2526,-9.26064Q35.1004,-9.48892 34.7375,-9.64111Q34.2926,-9.85183 33.8829,-9.9806Q33.4732,-10.1094 33.04,-10.2382Q32.6771,-10.3318 32.4664,-10.244Q32.2557,-10.1562 32.1737,-9.805Q32.0449,-9.19625 31.9103,-8.4119Q31.7757,-7.62754 31.6469,-6.78466Q31.5181,-5.94177 31.4069,-5.09303Q31.2957,-4.24429 31.2079,-3.50091Q31.1201,-2.75753 31.0674,-2.17219Q31.0147,-1.58685 30.9913,-1.27077Q30.9679,-0.966394 31.0557,-0.796645Q31.1435,-0.626897 31.4011,-0.498123Q31.6703,-0.334228 31.9571,-0.258134Q32.2439,-0.18204 32.5249,-0.1118Q32.8293,-0.0298523 32.9346,-0.0825327Q33.04,-0.135213 33.0868,-0.334228Q33.1454,-0.755672 33.2449,-1.32345Q33.3444,-1.89123 33.4673,-2.55266Q33.5902,-3.21409 33.7249,-3.93991Q33.8595,-4.66573 33.9883,-5.39155Q34.1404,-4.7828 34.316,-4.1799Q34.4916,-3.577 34.6673,-3.02093Q34.8429,-2.46486 35.0126,-1.98488Q35.1823,-1.5049 35.3462,-1.142Q35.557,-0.638604 36.0721,-0.439589Q36.634,-0.240574 37.1725,-0.135213Q37.8047,0.00526805 37.8749,-0.439589Q38.0622,-1.25906 38.3256,-2.34194Q38.589,-3.42481 38.8758,-4.56037Q39.1626,-5.69593 39.4553,-6.79636Q39.748,-7.8968 40.0172,-8.7631Q40.1109,-9.06748 40.0699,-9.28405Q40.0289,-9.50063 39.6895,-9.71135Q39.4904,-9.84012 39.3383,-9.92207Q39.1861,-10.004 39.0514,-10.0626Q38.9168,-10.1211 38.7763,-10.1562Q38.6358,-10.1913 38.4602,-10.2382Q38.0856,-10.3318 37.8925,-10.2499Q37.6993,-10.1679 37.6056,-9.82842Q37.2662,-8.57579 36.9208,-7.08903Q36.5755,-5.60227 36.3413,-4.06869Z" fill="#1b3d51" fill-opacity="1" />
		<path d="M43.0025,-9.53575 Q42.6864,-9.74647 42.2649,-9.93378Q41.8435,-10.1211 41.4806,-10.2147Q41.1177,-10.3201 40.9362,-10.244Q40.7548,-10.1679 40.6494,-9.82842Q40.5206,-9.2782 40.3684,-8.54653Q40.2163,-7.81485 40.0699,-6.99538Q39.9236,-6.1759 39.7831,-5.32131Q39.6426,-4.46672 39.5314,-3.69407Q39.4202,-2.92142 39.3441,-2.2717Q39.268,-1.62197 39.2446,-1.21224Q39.2095,-0.90786 39.2973,-0.738112Q39.3851,-0.568364 39.6543,-0.439589Q39.9002,-0.310815 40.1753,-0.228867Q40.4504,-0.14692 40.7548,-0.0649726Q41.0591,0.00526805 41.1587,-0.0532658Q41.2582,-0.1118 41.3167,-0.310815Q41.4221,-0.837619 41.5684,-1.51076Q41.7147,-2.1839 41.8903,-2.93898Q42.0659,-3.69407 42.2532,-4.48428Q42.4405,-5.27448 42.6337,-6.02957Q42.8269,-6.78466 43.02,-7.46365Q43.2132,-8.14264 43.3771,-8.66945Q43.459,-8.98553 43.3946,-9.14942Q43.3303,-9.31332 43.0025,-9.53575Z" fill="#1b3d51" fill-opacity="1" />
		<path d="M51.1387,-8.45872 Q51.5016,-8.48214 51.566,-8.58165Q51.6304,-8.68115 51.5601,-8.95041Q51.4782,-9.25478 51.326,-9.57087Q51.1738,-9.88695 50.9397,-10.1562Q50.8226,-10.3084 50.6645,-10.3728Q50.5065,-10.4372 50.1436,-10.4372Q49.4529,-10.4138 48.5807,-10.3494Q47.7086,-10.285 46.8013,-10.1913Q45.894,-10.0977 45.0219,-9.9806Q44.1497,-9.86354 43.459,-9.72306Q43.2366,-9.66452 43.1664,-9.57672Q43.0961,-9.48892 43.2366,-9.21966Q43.3654,-8.96212 43.5702,-8.5875Q43.7751,-8.21288 44.021,-7.96704Q44.2551,-7.7212 44.4424,-7.66852Q44.6297,-7.61584 44.9224,-7.68608Q45.1331,-7.74461 45.4492,-7.78559Q45.7653,-7.82656 46.1048,-7.88509Q45.9292,-7.08903 45.7536,-6.15834Q45.578,-5.22766 45.4316,-4.31453Q45.2853,-3.4014 45.1799,-2.58193Q45.0746,-1.76245 45.0394,-1.20053Q44.9926,-0.9781 45.0512,-0.820059Q45.1097,-0.662018 45.2443,-0.54495Q45.3789,-0.427882 45.578,-0.345935Q45.777,-0.263988 46.0228,-0.193747Q46.2687,-0.123506 46.4677,-0.0649726Q46.6667,-0.00643872 46.8189,-0.000585338Q46.9711,0.00526805 47.0589,-0.0474124Q47.1467,-0.100093 47.1701,-0.263988Q47.334,-1.11858 47.5505,-2.10195Q47.7671,-3.08532 48.013,-4.12137Q48.2588,-5.15742 48.5222,-6.21103Q48.7856,-7.26463 49.0315,-8.248Q49.6051,-8.30654 50.1436,-8.35922Q50.6821,-8.4119 51.1387,-8.45872Z" fill="#1b3d51" fill-opacity="1" />
		<path d="M63.1381,-8.45872 Q63.501,-8.48214 63.5654,-8.58165Q63.6298,-8.68115 63.5596,-8.95041Q63.4776,-9.25478 63.3254,-9.57087Q63.1732,-9.88695 62.9391,-10.1562Q62.822,-10.3084 62.664,-10.3728Q62.5059,-10.4372 62.143,-10.4372Q61.4523,-10.4138 60.5802,-10.3494Q59.708,-10.285 58.8008,-10.1913Q57.8935,-10.0977 57.0213,-9.9806Q56.1492,-9.86354 55.4585,-9.72306Q55.236,-9.66452 55.1658,-9.57672Q55.0956,-9.48892 55.236,-9.21966Q55.3648,-8.96212 55.5697,-8.5875Q55.7746,-8.21288 56.0204,-7.96704Q56.2545,-7.7212 56.4418,-7.66852Q56.6291,-7.61584 56.9218,-7.68608Q57.1325,-7.74461 57.4486,-7.78559Q57.7647,-7.82656 58.1042,-7.88509Q57.9286,-7.08903 57.753,-6.15834Q57.5774,-5.22766 57.4311,-4.31453Q57.2847,-3.4014 57.1794,-2.58193Q57.074,-1.76245 57.0389,-1.20053Q56.9921,-0.9781 57.0506,-0.820059Q57.1091,-0.662018 57.2438,-0.54495Q57.3784,-0.427882 57.5774,-0.345935Q57.7764,-0.263988 58.0223,-0.193747Q58.2681,-0.123506 58.4671,-0.0649726Q58.6661,-0.00643872 58.8183,-0.000585338Q58.9705,0.00526805 59.0583,-0.0474124Q59.1461,-0.100093 59.1695,-0.263988Q59.3334,-1.11858 59.55,-2.10195Q59.7666,-3.08532 60.0124,-4.12137Q60.2582,-5.15742 60.5216,-6.21103Q60.785,-7.26463 61.0309,-8.248Q61.6045,-8.30654 62.143,-8.35922Q62.6815,-8.4119 63.1381,-8.45872Z" fill="#1b3d51" fill-opacity="1" />
		<path d="M63.8756,-9.58257 L62.7635,-1.79757 Q62.7401,-1.48149 62.8513,-1.25906Q62.9625,-1.03663 63.1615,-0.872739Q63.4074,-0.662018 63.5888,-0.52739Q63.7703,-0.392762 63.9693,-0.263988Q64.1449,-0.14692 64.3849,-0.0825327Q64.6249,-0.0181455 65.0931,-0.135213Q65.7955,-0.263988 66.5682,-0.416176Q67.3408,-0.568364 68.0901,-0.708845Q68.4062,-0.767379 68.4647,-0.855179Q68.5232,-0.94298 68.4647,-1.17712Q68.371,-1.38784 68.2949,-1.59271Q68.2188,-1.79757 68.0784,-2.03171Q67.9496,-2.24243 67.7681,-2.31267Q67.5867,-2.38291 67.2589,-2.3595Q66.6736,-2.32438 66.176,-2.26584Q65.6785,-2.20731 65.1283,-2.11366Q65.2219,-2.44145 65.3039,-2.77509Q65.3858,-3.10873 65.4795,-3.48335Q66.1585,-3.62383 66.8901,-3.7409Q67.6218,-3.85796 68.3242,-3.98674Q68.652,-4.05698 68.7281,-4.15063Q68.8042,-4.24429 68.7105,-4.51354Q68.652,-4.74768 68.5759,-4.97596Q68.4998,-5.20424 68.3593,-5.43838Q68.2306,-5.67251 68.0432,-5.74275Q67.8559,-5.813 67.5281,-5.80129Q67.1301,-5.78958 66.7789,-5.76617Q66.4277,-5.74275 66.0765,-5.69593Q66.2638,-6.31639 66.416,-6.88416Q66.5682,-7.45194 66.7438,-7.97875Q67.575,-8.09581 68.3242,-8.17776Q69.0734,-8.25971 69.7758,-8.34166Q70.1153,-8.38848 70.209,-8.49384Q70.3026,-8.59921 70.2558,-8.90358Q70.1973,-9.17284 70.1388,-9.40112Q70.0802,-9.6294 69.928,-9.91036Q69.7407,-10.4372 69.0734,-10.4255Q68.371,-10.402 67.6628,-10.3142Q66.9545,-10.2264 66.2814,-10.1094Q65.6082,-9.99231 64.9936,-9.85183Q64.379,-9.71135 63.8756,-9.58257Z" fill="#1b3d51" fill-opacity="1" />
		<path d="M69.1788,-2.60534 Q68.933,-2.48827 68.9564,-2.26584Q68.9798,-2.03171 69.4949,-1.59856Q70.4431,-0.708845 71.3387,-0.345935Q72.2343,0.0169748 73.1825,-0.00643872Q73.8849,-0.0181455 74.3883,-0.18204Q74.8917,-0.345935 75.2429,-0.591777Q75.5941,-0.837619 75.8048,-1.12443Q76.0156,-1.41125 76.1326,-1.65709Q76.3199,-2.0083 76.2555,-2.31267Q76.1912,-2.61705 75.9512,-2.89216Q75.7112,-3.16727 75.3424,-3.43067Q74.9736,-3.69407 74.5581,-3.96333Q74.1425,-4.23258 73.721,-4.5194Q73.2996,-4.80621 72.9601,-5.134Q72.6908,-5.37984 72.6206,-5.69007Q72.5503,-6.0003 72.6089,-6.32224Q72.6674,-6.64418 72.8313,-6.96026Q72.9952,-7.27634 73.2118,-7.55145Q73.4284,-7.82656 73.6683,-8.04313Q73.9083,-8.25971 74.1073,-8.36507Q74.3298,-8.52896 74.4293,-8.4997Q74.5288,-8.47043 74.5464,-8.3241Q74.5639,-8.17776 74.5171,-7.93192Q74.4703,-7.68608 74.4059,-7.41097Q74.3415,-7.13586 74.2771,-6.8666Q74.2127,-6.59735 74.1893,-6.38663Q74.0605,-5.37984 75.6643,-4.84133Q75.957,-4.71256 76.1034,-4.77695Q76.2497,-4.84133 76.3902,-5.07547Q76.5189,-5.32131 76.6419,-5.68422Q76.7648,-6.04713 76.876,-6.44516Q76.9872,-6.84319 77.0692,-7.22951Q77.1511,-7.61584 77.1979,-7.92021Q77.1979,-8.09581 77.1921,-8.30068Q77.1862,-8.50555 77.1335,-8.71627Q77.0809,-8.92699 76.9521,-9.14942Q76.8233,-9.37185 76.5892,-9.59428Q76.2263,-9.92207 75.6936,-10.203Q75.161,-10.484 74.6342,-10.6713Q74.2829,-10.7767 73.9552,-10.7942Q73.6274,-10.8118 73.3464,-10.765Q73.0654,-10.7181 72.843,-10.6186Q72.6206,-10.5191 72.4801,-10.4138Q72.047,-10.1445 71.6314,-9.76403Q71.2158,-9.38356 70.8704,-8.94456Q70.5251,-8.50555 70.2734,-8.03728Q70.0217,-7.56901 69.9163,-7.14757Q69.7641,-6.66759 69.7758,-6.23444Q69.7876,-5.80129 69.928,-5.41496Q70.0685,-5.02864 70.3202,-4.695Q70.5719,-4.36136 70.8997,-4.10381Q71.1924,-3.85796 71.5553,-3.61798Q71.9182,-3.37799 72.2811,-3.15556Q72.644,-2.93313 72.9659,-2.72241Q73.2879,-2.51169 73.5044,-2.33609Q73.721,-2.16048 73.7971,-2.02586Q73.8732,-1.89123 73.7327,-1.79757Q73.4049,-1.52832 72.6674,-1.70392Q71.9299,-1.87952 70.9348,-2.49998Q70.7592,-2.61705 70.5426,-2.68143Q70.3261,-2.74582 70.0919,-2.75753Q69.8578,-2.76924 69.6237,-2.73412Q69.3895,-2.699 69.1788,-2.60534Z" fill="#1b3d51" fill-opacity="1" />
		<path d="M84.702,-8.45872 Q85.0649,-8.48214 85.1293,-8.58165Q85.1937,-8.68115 85.1234,-8.95041Q85.0415,-9.25478 84.8893,-9.57087Q84.7371,-9.88695 84.503,-10.1562Q84.3859,-10.3084 84.2278,-10.3728Q84.0698,-10.4372 83.7069,-10.4372Q83.0162,-10.4138 82.144,-10.3494Q81.2719,-10.285 80.3646,-10.1913Q79.4573,-10.0977 78.5852,-9.9806Q77.713,-9.86354 77.0223,-9.72306Q76.7999,-9.66452 76.7297,-9.57672Q76.6594,-9.48892 76.7999,-9.21966Q76.9287,-8.96212 77.1335,-8.5875Q77.3384,-8.21288 77.5843,-7.96704Q77.8184,-7.7212 78.0057,-7.66852Q78.193,-7.61584 78.4857,-7.68608Q78.6964,-7.74461 79.0125,-7.78559Q79.3286,-7.82656 79.6681,-7.88509Q79.4925,-7.08903 79.3169,-6.15834Q79.1413,-5.22766 78.9949,-4.31453Q78.8486,-3.4014 78.7432,-2.58193Q78.6379,-1.76245 78.6027,-1.20053Q78.5559,-0.9781 78.6145,-0.820059Q78.673,-0.662018 78.8076,-0.54495Q78.9422,-0.427882 79.1413,-0.345935Q79.3403,-0.263988 79.5861,-0.193747Q79.832,-0.123506 80.031,-0.0649726Q80.23,-0.00643872 80.3822,-0.000585338Q80.5344,0.00526805 80.6222,-0.0474124Q80.71,-0.100093 80.7334,-0.263988Q80.8973,-1.11858 81.1138,-2.10195Q81.3304,-3.08532 81.5763,-4.12137Q81.8221,-5.15742 82.0855,-6.21103Q82.3489,-7.26463 82.5948,-8.248Q83.1684,-8.30654 83.7069,-8.35922Q84.2454,-8.4119 84.702,-8.45872Z" fill="#1b3d51" fill-opacity="1" />
		<path d="M83.9879,-2.60534 Q83.742,-2.48827 83.7654,-2.26584Q83.7888,-2.03171 84.3039,-1.59856Q85.2522,-0.708845 86.1478,-0.345935Q87.0433,0.0169748 87.9916,-0.00643872Q88.694,-0.0181455 89.1974,-0.18204Q89.7008,-0.345935 90.052,-0.591777Q90.4032,-0.837619 90.6139,-1.12443Q90.8246,-1.41125 90.9417,-1.65709Q91.129,-2.0083 91.0646,-2.31267Q91.0002,-2.61705 90.7602,-2.89216Q90.5202,-3.16727 90.1515,-3.43067Q89.7827,-3.69407 89.3671,-3.96333Q88.9515,-4.23258 88.5301,-4.5194Q88.1086,-4.80621 87.7691,-5.134Q87.4999,-5.37984 87.4296,-5.69007Q87.3594,-6.0003 87.4179,-6.32224Q87.4765,-6.64418 87.6404,-6.96026Q87.8043,-7.27634 88.0208,-7.55145Q88.2374,-7.82656 88.4774,-8.04313Q88.7174,-8.25971 88.9164,-8.36507Q89.1388,-8.52896 89.2383,-8.4997Q89.3379,-8.47043 89.3554,-8.3241Q89.373,-8.17776 89.3261,-7.93192Q89.2793,-7.68608 89.2149,-7.41097Q89.1505,-7.13586 89.0862,-6.8666Q89.0218,-6.59735 88.9984,-6.38663Q88.8696,-5.37984 90.4734,-4.84133Q90.7661,-4.71256 90.9124,-4.77695Q91.0587,-4.84133 91.1992,-5.07547Q91.328,-5.32131 91.4509,-5.68422Q91.5738,-6.04713 91.6851,-6.44516Q91.7963,-6.84319 91.8782,-7.22951Q91.9602,-7.61584 92.007,-7.92021Q92.007,-8.09581 92.0011,-8.30068Q91.9953,-8.50555 91.9426,-8.71627Q91.8899,-8.92699 91.7612,-9.14942Q91.6324,-9.37185 91.3982,-9.59428Q91.0353,-9.92207 90.5027,-10.203Q89.97,-10.484 89.4432,-10.6713Q89.092,-10.7767 88.7642,-10.7942Q88.4364,-10.8118 88.1555,-10.765Q87.8745,-10.7181 87.6521,-10.6186Q87.4296,-10.5191 87.2892,-10.4138Q86.856,-10.1445 86.4404,-9.76403Q86.0248,-9.38356 85.6795,-8.94456Q85.3341,-8.50555 85.0824,-8.03728Q84.8307,-7.56901 84.7254,-7.14757Q84.5732,-6.66759 84.5849,-6.23444Q84.5966,-5.80129 84.7371,-5.41496Q84.8776,-5.02864 85.1293,-4.695Q85.381,-4.36136 85.7088,-4.10381Q86.0014,-3.85796 86.3643,-3.61798Q86.7272,-3.37799 87.0902,-3.15556Q87.4531,-2.93313 87.775,-2.72241Q88.0969,-2.51169 88.3135,-2.33609Q88.5301,-2.16048 88.6062,-2.02586Q88.6823,-1.89123 88.5418,-1.79757Q88.214,-1.52832 87.4765,-1.70392Q86.7389,-1.87952 85.7439,-2.49998Q85.5683,-2.61705 85.3517,-2.68143Q85.1351,-2.74582 84.901,-2.75753Q84.6669,-2.76924 84.4327,-2.73412Q84.1986,-2.699 83.9879,-2.60534Z" fill="#1b3d51" fill-opacity="1" />
		<path d="M24.3407,-27.9373 Q24.5163,-26.7666 24.7329,-25.6662Q24.9495,-24.5657 25.1836,-23.7228Q25.2421,-23.5238 25.2948,-23.395Q25.3475,-23.2663 25.4177,-23.1785Q25.488,-23.0907 25.5816,-23.038Q25.6753,-22.9853 25.804,-22.9385Q26.1553,-22.8214 26.6235,-22.7278Q26.7757,-22.6926 26.8694,-22.6985Q26.963,-22.7043 27.0216,-22.7395Q27.0801,-22.7746 27.1211,-22.8507Q27.162,-22.9268 27.2206,-23.0555Q27.4079,-23.4653 27.7181,-24.0799Q28.0283,-24.6945 28.3971,-25.3852Q28.7659,-26.0759 29.158,-26.79Q29.5502,-27.5041 29.9014,-28.1129Q29.7024,-27.4222 29.5327,-26.6846Q29.3629,-25.9471 29.2224,-25.274Q29.0819,-24.6008 28.9766,-24.0448Q28.8712,-23.4887 28.8244,-23.1375Q28.7659,-22.8448 28.8537,-22.6692Q28.9415,-22.4936 29.2107,-22.3648Q29.4214,-22.2478 29.7024,-22.1658Q29.9834,-22.0839 30.2526,-22.0254Q30.557,-21.9551 30.6624,-22.0488Q30.7677,-22.1424 30.8497,-22.3531Q30.9433,-22.7629 31.1072,-23.3833Q31.2711,-24.0038 31.476,-24.7413Q31.6808,-25.4788 31.9091,-26.2866Q32.1374,-27.0944 32.3657,-27.8787Q32.594,-28.6631 32.8164,-29.3772Q33.0388,-30.0913 33.2144,-30.6415Q33.3432,-31.0279 33.2554,-31.2444Q33.1676,-31.461 32.8281,-31.6249Q32.313,-31.859 31.7804,-32.0346Q31.2477,-32.2102 30.7677,-32.339Q30.358,-32.4561 30.0946,-32.4327Q29.8312,-32.4093 29.6205,-32.2278Q29.4097,-32.0463 29.2107,-31.701Q29.0117,-31.3556 28.7424,-30.8171Q28.4732,-30.3489 28.1864,-29.8221Q27.8996,-29.2953 27.6303,-28.7685Q27.361,-28.2416 27.1094,-27.7383Q26.8577,-27.2349 26.6703,-26.8134Q26.483,-28.0192 26.3777,-28.7099Q26.2723,-29.4006 26.2196,-29.7752Q26.167,-30.1498 26.1494,-30.2962Q26.1318,-30.4425 26.1318,-30.5479Q26.085,-30.7703 26.044,-30.9459Q26.0031,-31.1215 25.9094,-31.2678Q25.8158,-31.4142 25.6519,-31.5371Q25.488,-31.66 25.207,-31.7654Q24.7621,-31.9293 24.3231,-32.0463Q23.8841,-32.1634 23.252,-32.2571Q22.8422,-32.3156 22.6491,-32.2161Q22.4559,-32.1166 22.3506,-31.7186Q22.2452,-31.1683 22.134,-30.4484Q22.0228,-29.7284 21.9115,-28.9206Q21.8003,-28.1129 21.7067,-27.2817Q21.613,-26.4505 21.5369,-25.6779Q21.4608,-24.9052 21.4199,-24.2438Q21.3789,-23.5824 21.3789,-23.1258Q21.3555,-22.8214 21.4608,-22.6575Q21.5662,-22.4936 21.8589,-22.3531Q22.093,-22.2361 22.3681,-22.1483Q22.6432,-22.0605 22.9125,-22.0019Q23.1934,-21.9434 23.2988,-22.0078Q23.4042,-22.0722 23.451,-22.2829Q23.4978,-22.7863 23.5856,-23.4302Q23.6734,-24.074 23.7905,-24.8116Q23.9076,-25.5491 24.048,-26.3451Q24.1885,-27.1412 24.3407,-27.9373Z" fill="#1b3d51" fill-opacity="1" />
		<path d="M37.8503,-24.4252 Q37.8854,-23.9453 37.9206,-23.5414Q37.9557,-23.1375 38.0025,-22.798Q38.0493,-22.4702 38.1605,-22.3414Q38.2718,-22.2127 38.5527,-22.1307Q38.822,-22.0371 39.0795,-22.0195Q39.3371,-22.0019 39.6414,-22.0019Q39.9458,-22.0019 40.0336,-22.0839Q40.1214,-22.1658 40.1214,-22.3766Q40.1097,-23.3833 40.1156,-24.5599Q40.1214,-25.7364 40.1448,-26.9071Q40.1683,-28.0778 40.2151,-29.1548Q40.2619,-30.2318 40.3321,-31.063Q40.3673,-31.4025 40.2678,-31.6132Q40.1683,-31.8239 39.8053,-31.9527Q39.5361,-32.0229 39.2727,-32.1049Q39.0093,-32.1868 38.6991,-32.2571Q38.3888,-32.3273 38.0142,-32.38Q37.6396,-32.4327 37.1596,-32.4561Q36.6094,-32.5029 36.3284,-32.3039Q36.0475,-32.1049 35.8719,-31.7888Q35.3802,-30.9108 34.8358,-29.7811Q34.2915,-28.6514 33.7705,-27.4924Q33.2496,-26.3334 32.7988,-25.2447Q32.3481,-24.156 32.0672,-23.3482Q31.9969,-23.1024 32.0028,-22.956Q32.0086,-22.8097 32.0672,-22.7161Q32.1257,-22.6224 32.2311,-22.558Q32.3364,-22.4936 32.4769,-22.4Q32.6642,-22.3063 32.8457,-22.2302Q33.0271,-22.1541 33.1793,-22.0956Q33.4486,-22.0019 33.5832,-22.0371Q33.7178,-22.0722 33.8115,-22.2712Q33.9754,-22.6458 34.151,-23.038Q34.3266,-23.4302 34.5607,-23.8867Q35.228,-24.0623 36.1001,-24.1853Q36.9723,-24.3082 37.8503,-24.4252Z M35.6143,-26.0642 Q36.1645,-27.1763 36.7089,-28.2124Q37.2533,-29.2484 37.7215,-30.103Q37.6981,-29.1665 37.7098,-28.2124Q37.7215,-27.2583 37.745,-26.2983Q37.2064,-26.2632 36.6738,-26.2047Q36.1411,-26.1461 35.6143,-26.0642Z" fill="#1b3d51" fill-opacity="1" />
		<path d="M43.493,-24.952 Q43.7973,-24.5774 44.172,-24.2087Q44.5466,-23.8399 44.9212,-23.5004Q45.2958,-23.1609 45.647,-22.8799Q45.9982,-22.599 46.2675,-22.4117Q46.6772,-22.1658 46.9874,-22.1366Q47.2977,-22.1073 47.5552,-22.1775Q47.7659,-22.2127 47.9123,-22.2419Q48.0586,-22.2712 48.2693,-22.4351Q48.4449,-22.5639 48.4683,-22.6809Q48.4918,-22.798 48.2576,-22.997Q47.965,-23.2311 47.6313,-23.5472Q47.2977,-23.8633 46.9582,-24.2028Q46.6187,-24.5423 46.2967,-24.8818Q45.9748,-25.2213 45.7056,-25.5257Q47.0167,-26.111 47.9591,-26.79Q48.9015,-27.469 49.3112,-28.2768Q49.5805,-28.7802 49.4283,-29.5645Q49.241,-30.302 48.9074,-30.8113Q48.5737,-31.3205 48.164,-31.7654Q47.6489,-32.2688 46.964,-32.38Q46.2792,-32.4912 45.5124,-32.3566Q44.7456,-32.2219 43.9554,-31.9059Q43.1652,-31.5898 42.4394,-31.262Q42.2872,-31.18 42.1467,-30.8464Q42.0062,-30.5128 41.8891,-30.0035Q41.7721,-29.4943 41.6667,-28.8563Q41.5614,-28.2182 41.4736,-27.5392Q41.3858,-26.8602 41.3097,-26.1813Q41.2336,-25.5023 41.175,-24.9111Q41.1165,-24.3199 41.0755,-23.8516Q41.0346,-23.3833 41.0111,-23.1375Q40.9877,-22.8331 41.0697,-22.6517Q41.1516,-22.4702 41.374,-22.3414Q41.5965,-22.2244 41.8423,-22.1775Q42.0882,-22.1307 42.4042,-22.0488Q42.6735,-21.9902 42.773,-22.0488Q42.8725,-22.1073 42.931,-22.2946Q43.0598,-22.9268 43.1945,-23.5824Q43.3291,-24.2379 43.493,-24.952Z M44.7456,-29.705 Q45.2022,-29.9274 45.6119,-30.0094Q46.0216,-30.0913 46.3611,-30.0913Q47.0518,-30.0913 47.1923,-29.7635Q47.2626,-29.5645 47.0752,-29.2016Q46.8879,-28.8387 46.4665,-28.4348Q46.045,-28.0309 45.4187,-27.6387Q44.7924,-27.2466 43.9847,-26.9773Q44.2071,-27.75 44.3827,-28.429Q44.5583,-29.1079 44.7456,-29.705Z" fill="#1b3d51" fill-opacity="1" />
		<path d="M53.7715,-25.7598 Q54.2866,-26.2515 54.8602,-26.8134Q55.4339,-27.3753 55.9665,-27.9431Q56.4992,-28.5109 56.9499,-29.0553Q57.4006,-29.5996 57.6699,-30.0445Q57.8923,-30.4074 57.9216,-30.6532Q57.9508,-30.8991 57.8572,-31.1566Q57.705,-31.4727 57.5352,-31.742Q57.3655,-32.0112 57.1079,-32.2337Q56.8621,-32.4444 56.6631,-32.4444Q56.4875,-32.4444 56.2885,-32.1868Q55.9841,-31.8122 55.51,-31.2737Q55.0358,-30.7352 54.4915,-30.1381Q53.9471,-29.5411 53.3735,-28.9265Q52.7999,-28.3119 52.3082,-27.7734Q52.5072,-28.6865 52.6828,-29.4533Q52.8584,-30.2201 53.034,-30.8171Q53.0808,-30.9693 53.0925,-31.0805Q53.1042,-31.1918 53.0574,-31.2854Q53.0106,-31.3791 52.9052,-31.4669Q52.7999,-31.5547 52.6243,-31.6717Q52.3082,-31.8825 51.8809,-32.0698Q51.4536,-32.2571 51.079,-32.3507Q50.7395,-32.4561 50.5522,-32.38Q50.3648,-32.3039 50.2712,-31.9761Q50.1541,-31.4259 50.0253,-30.6767Q49.8966,-29.9274 49.7678,-29.0904Q49.639,-28.2534 49.522,-27.3812Q49.4049,-26.509 49.3112,-25.713Q49.2176,-24.9169 49.159,-24.2555Q49.1005,-23.5941 49.0888,-23.1843Q49.0654,-22.7512 49.2995,-22.5405Q49.5337,-22.3297 50.0605,-22.1892Q50.318,-22.119 50.5346,-22.0546Q50.7512,-21.9902 50.9034,-21.9844Q51.0555,-21.9785 51.1375,-22.0429Q51.2194,-22.1073 51.2194,-22.2829Q51.3131,-22.8097 51.4302,-23.4536Q51.5472,-24.0975 51.6994,-24.8701Q51.9453,-24.5189 52.2321,-24.1618Q52.5189,-23.8048 52.7823,-23.4887Q53.0457,-23.1726 53.2681,-22.9268Q53.4906,-22.6809 53.6193,-22.5405Q53.9354,-22.201 54.2515,-22.1541Q54.5676,-22.1073 54.872,-22.1892Q55.071,-22.2127 55.2758,-22.2712Q55.4807,-22.3297 55.6329,-22.4117Q55.8904,-22.5287 55.9314,-22.6517Q55.9724,-22.7746 55.7734,-22.9736Q55.5861,-23.1843 55.3402,-23.5004Q55.0944,-23.8165 54.8251,-24.1911Q54.5559,-24.5657 54.2808,-24.9696Q54.0056,-25.3735 53.7715,-25.7598Z" fill="#1b3d51" fill-opacity="1" />
		<path d="M57.8455,-31.4844 L57.1665,-24.0506 Q57.1314,-23.758 57.1548,-23.5706Q57.1782,-23.3833 57.2543,-23.2546Q57.3304,-23.1258 57.4357,-23.0263Q57.5411,-22.9268 57.6582,-22.8214Q57.9742,-22.5873 58.2201,-22.4292Q58.4659,-22.2712 58.7937,-22.1073Q59.4493,-21.7912 60.0463,-22.0019Q61.217,-22.3297 62.1419,-22.8799Q63.0667,-23.4302 63.7398,-24.1209Q64.413,-24.8116 64.8344,-25.5959Q65.2559,-26.3803 65.4256,-27.1705Q65.5953,-27.9607 65.5134,-28.7099Q65.4315,-29.4591 65.1037,-30.0913Q64.7173,-30.8874 64.1554,-31.3674Q63.5935,-31.8473 62.9321,-32.0873Q62.2706,-32.3273 61.5624,-32.3566Q60.8541,-32.3858 60.1751,-32.2746Q59.4961,-32.1634 58.8932,-31.9468Q58.2903,-31.7303 57.8455,-31.4844Z M59.4142,-23.8399 Q59.7068,-25.3618 60.0229,-26.8544Q60.339,-28.347 60.7487,-29.8806Q61.5097,-30.1264 62.0365,-29.9274Q62.5633,-29.7284 62.774,-29.3304Q62.9847,-28.9323 62.9379,-28.2182Q62.9028,-27.7031 62.6921,-27.1061Q62.4813,-26.509 62.0599,-25.912Q61.6385,-25.315 60.9829,-24.7706Q60.3273,-24.2262 59.4142,-23.8399Z" fill="#1b3d51" fill-opacity="1" />
		<path d="M72.5726,-31.461 Q72.1746,-31.7771 71.5717,-31.9995Q70.9688,-32.2219 70.3015,-32.3273Q69.7864,-32.4093 69.2186,-32.2454Q68.6508,-32.0815 68.2411,-31.7654Q67.6323,-31.2386 67.1699,-30.5771Q66.7075,-29.9157 66.3914,-29.1782Q66.0753,-28.4407 65.9114,-27.6622Q65.7475,-26.8837 65.7358,-26.1344Q65.7241,-25.3852 65.8646,-24.7062Q66.0051,-24.0272 66.286,-23.4887Q66.4616,-23.1609 66.766,-22.9034Q67.0704,-22.6458 67.3865,-22.4819Q67.7728,-22.2829 68.2411,-22.1834Q68.7093,-22.0839 69.1542,-22.0371Q69.8215,-21.9668 70.3366,-22.0897Q70.8517,-22.2127 71.32,-22.5756Q72.0107,-23.1843 72.4848,-24.0623Q72.9589,-24.9403 73.234,-25.9296Q73.5091,-26.9188 73.5794,-27.9197Q73.6496,-28.9206 73.5208,-29.7752Q73.4272,-30.2903 73.2223,-30.6942Q73.0174,-31.0981 72.5726,-31.461Z M70.6878,-30.2903 Q70.9219,-30.2201 71.0331,-29.8045Q71.1444,-29.3889 71.1444,-28.8036Q71.1444,-28.2299 71.0507,-27.5685Q70.957,-26.9071 70.8049,-26.3569Q70.6293,-25.6896 70.3893,-25.1218Q70.1493,-24.554 69.88,-24.1677Q69.6108,-23.7814 69.3415,-23.5941Q69.0723,-23.4068 68.8264,-23.4887Q68.5572,-23.5706 68.4167,-23.9336Q68.2762,-24.2965 68.2528,-24.8057Q68.2294,-25.315 68.2996,-25.9061Q68.3699,-26.4973 68.5337,-27.0476Q68.6976,-27.6095 68.961,-28.2124Q69.2244,-28.8153 69.5288,-29.307Q69.8332,-29.7986 70.1376,-30.0855Q70.4419,-30.3723 70.6878,-30.2903Z" fill="#1b3d51" fill-opacity="1" />
		<path d="M76.2836,-25.2798 Q76.2836,-25.9822 76.3012,-26.7607Q76.3187,-27.5392 76.348,-28.2592Q76.3773,-28.9792 76.4065,-29.5645Q76.4358,-30.1498 76.4475,-30.4542Q76.4592,-30.6064 76.4475,-30.7879Q76.4358,-30.9693 76.3831,-31.1391Q76.3305,-31.3088 76.2251,-31.461Q76.1197,-31.6132 75.9441,-31.7186Q75.6398,-31.8942 75.2886,-31.9937Q74.9373,-32.0932 74.5042,-32.1868Q74.1296,-32.2688 74.0008,-32.1634Q73.872,-32.0581 73.8603,-31.6834Q73.8603,-31.0161 73.872,-30.2376Q73.8837,-29.4591 73.9189,-28.6455Q73.954,-27.8319 74.0008,-27.0124Q74.0476,-26.193 74.1062,-25.4437Q74.1647,-24.7296 74.2408,-24.1033Q74.3169,-23.477 74.4105,-22.997Q74.4457,-22.6692 74.5686,-22.5112Q74.6915,-22.3531 74.9725,-22.2595Q75.2768,-22.1658 75.6105,-22.078Q75.9441,-21.9902 76.307,-21.9317Q76.5763,-21.8966 76.7343,-21.9376Q76.8924,-21.9785 77.0329,-22.2127Q77.1616,-22.5053 77.3724,-22.956Q77.5831,-23.4068 77.8348,-23.9336Q78.0865,-24.4604 78.3674,-25.0164Q78.6484,-25.5725 78.9176,-26.0876Q78.9176,-25.6779 78.9586,-25.2447Q78.9996,-24.8116 79.0464,-24.396Q79.0933,-23.9804 79.1459,-23.6292Q79.1986,-23.278 79.2337,-23.0321Q79.2806,-22.7863 79.421,-22.5814Q79.5615,-22.3766 79.8893,-22.2595Q80.0532,-22.2244 80.1878,-22.1834Q80.3225,-22.1424 80.4571,-22.1073Q80.5917,-22.0722 80.7439,-22.0312Q80.8961,-21.9902 81.1068,-21.9551Q81.4814,-21.8966 81.6804,-21.9551Q81.8795,-22.0136 81.9965,-22.2361Q82.2073,-22.7161 82.4999,-23.3599Q82.7926,-24.0038 83.1262,-24.7355Q83.4599,-25.4671 83.8286,-26.2456Q84.1974,-27.0241 84.5603,-27.7734Q84.9232,-28.5226 85.2744,-29.2133Q85.6256,-29.904 85.9183,-30.4425Q86.0588,-30.7469 86.0705,-31.0396Q86.0822,-31.3322 85.8129,-31.5898Q85.5671,-31.7888 85.3037,-31.9468Q85.0403,-32.1049 84.771,-32.2337Q84.3964,-32.3858 84.2208,-32.3449Q84.0452,-32.3039 83.8696,-31.941Q83.7291,-31.6717 83.5243,-31.2444Q83.3194,-30.8171 83.0677,-30.2786Q82.816,-29.7401 82.5292,-29.1255Q82.2424,-28.5109 81.9497,-27.867Q81.657,-27.2232 81.3702,-26.5851Q81.0834,-25.9471 80.8376,-25.3735Q80.8844,-26.0642 80.9371,-26.79Q80.9897,-27.5158 81.0366,-28.1597Q81.0834,-28.8036 81.1185,-29.2835Q81.1536,-29.7635 81.1536,-29.9625Q81.1536,-30.1381 81.1478,-30.2669Q81.1419,-30.3957 81.101,-30.4893Q81.06,-30.583 80.9722,-30.6532Q80.8844,-30.7235 80.7088,-30.7937Q80.3927,-30.9225 80.1644,-31.0044Q79.9361,-31.0864 79.5966,-31.1566Q79.2571,-31.2386 79.0874,-31.1683Q78.9176,-31.0981 78.7772,-30.8405Q78.5899,-30.5362 78.2913,-29.8923Q77.9928,-29.2484 77.6475,-28.4641Q77.3021,-27.6797 76.9451,-26.8368Q76.588,-25.9939 76.2836,-25.2798Z" fill="#1b3d51" fill-opacity="1" />
		<path d="M90.203,-26.0408 Q90.0742,-26.6378 89.9454,-27.2875Q89.8166,-27.9373 89.6996,-28.5519Q89.5825,-29.1665 89.4889,-29.6933Q89.3952,-30.2201 89.3367,-30.5596Q89.2664,-31.0044 89.1142,-31.2327Q88.9621,-31.461 88.5991,-31.6132Q88.1543,-31.8239 87.7446,-31.9527Q87.3348,-32.0815 86.9017,-32.2102Q86.5388,-32.3039 86.328,-32.2161Q86.1173,-32.1283 86.0354,-31.7771Q85.9066,-31.1683 85.772,-30.384Q85.6373,-29.5996 85.5086,-28.7567Q85.3798,-27.9139 85.2686,-27.0651Q85.1574,-26.2164 85.0696,-25.473Q84.9818,-24.7296 84.9291,-24.1443Q84.8764,-23.5589 84.853,-23.2429Q84.8296,-22.9385 84.9174,-22.7687Q85.0052,-22.599 85.2627,-22.4702Q85.532,-22.3063 85.8188,-22.2302Q86.1056,-22.1541 86.3866,-22.0839Q86.6909,-22.0019 86.7963,-22.0546Q86.9017,-22.1073 86.9485,-22.3063Q87.007,-22.7278 87.1065,-23.2955Q87.206,-23.8633 87.329,-24.5247Q87.4519,-25.1862 87.5865,-25.912Q87.7211,-26.6378 87.8499,-27.3636Q88.0021,-26.7549 88.1777,-26.152Q88.3533,-25.5491 88.5289,-24.993Q88.7045,-24.4369 88.8743,-23.957Q89.044,-23.477 89.2079,-23.1141Q89.4186,-22.6107 89.9337,-22.4117Q90.4956,-22.2127 91.0342,-22.1073Q91.6663,-21.9668 91.7366,-22.4117Q91.9239,-23.2311 92.1873,-24.314Q92.4507,-25.3969 92.7375,-26.5325Q93.0243,-27.668 93.317,-28.7685Q93.6096,-29.8689 93.8789,-30.7352Q93.9726,-31.0396 93.9316,-31.2561Q93.8906,-31.4727 93.5511,-31.6834Q93.3521,-31.8122 93.1999,-31.8942Q93.0477,-31.9761 92.9131,-32.0346Q92.7785,-32.0932 92.638,-32.1283Q92.4975,-32.1634 92.3219,-32.2102Q91.9473,-32.3039 91.7541,-32.2219Q91.561,-32.14 91.4673,-31.8005Q91.1278,-30.5479 90.7825,-29.0611Q90.4371,-27.5744 90.203,-26.0408Z" fill="#1b3d51" fill-opacity="1" />
		<path d="M35.8876,-55.668 Q36.2505,-55.6914 36.3149,-55.7909Q36.3793,-55.8904 36.3091,-56.1597Q36.2271,-56.464 36.0749,-56.7801Q35.9228,-57.0962 35.6886,-57.3654Q35.5716,-57.5176 35.4135,-57.582Q35.2555,-57.6464 34.8926,-57.6464Q34.2019,-57.623 33.3297,-57.5586Q32.4576,-57.4942 31.5503,-57.4006Q30.643,-57.3069 29.7708,-57.1898Q28.8987,-57.0728 28.208,-56.9323Q27.9856,-56.8738 27.9153,-56.786Q27.8451,-56.6982 27.9856,-56.4289Q28.1143,-56.1714 28.3192,-55.7967Q28.5241,-55.4221 28.7699,-55.1763Q29.0041,-54.9304 29.1914,-54.8778Q29.3787,-54.8251 29.6713,-54.8953Q29.8821,-54.9539 30.1981,-54.9948Q30.5142,-55.0358 30.8537,-55.0943Q30.6781,-54.2983 30.5025,-53.3676Q30.3269,-52.4369 30.1806,-51.5238Q30.0343,-50.6106 29.9289,-49.7912Q29.8235,-48.9717 29.7884,-48.4098Q29.7416,-48.1873 29.8001,-48.0293Q29.8586,-47.8713 29.9933,-47.7542Q30.1279,-47.6371 30.3269,-47.5552Q30.5259,-47.4732 30.7718,-47.403Q31.0176,-47.3327 31.2166,-47.2742Q31.4156,-47.2157 31.5678,-47.2098Q31.72,-47.204 31.8078,-47.2567Q31.8956,-47.3093 31.919,-47.4732Q32.0829,-48.3278 32.2995,-49.3112Q32.5161,-50.2946 32.7619,-51.3306Q33.0078,-52.3667 33.2712,-53.4203Q33.5346,-54.4739 33.7804,-55.4572Q34.354,-55.5158 34.8926,-55.5685Q35.4311,-55.6211 35.8876,-55.668Z" fill="#09476b" fill-opacity="1" />
		<path d="M36.0866,-48.6439 Q36.274,-48.3161 36.5315,-48.0937Q36.7891,-47.8713 37.0817,-47.7074Q37.7607,-47.3327 38.8143,-47.2625Q39.3411,-47.2274 39.7509,-47.3035Q40.1606,-47.3796 40.5703,-47.5786Q41.144,-47.9064 41.6122,-48.6322Q42.0805,-49.358 42.4785,-50.435Q42.8766,-51.5121 43.2336,-52.911Q43.5907,-54.31 43.9419,-55.9841Q43.977,-56.1362 43.9887,-56.2475Q44.0004,-56.3587 43.9653,-56.4523Q43.9302,-56.546 43.8424,-56.6338Q43.7546,-56.7216 43.5907,-56.8269Q43.2746,-57.0142 42.8941,-57.2074Q42.5137,-57.4006 42.18,-57.4884Q41.8464,-57.5762 41.6122,-57.5059Q41.3781,-57.4357 41.3547,-57.0845Q41.2142,-56.3587 41.0386,-55.4338Q40.863,-54.509 40.6464,-53.5549Q40.4299,-52.6008 40.1782,-51.6994Q39.9265,-50.798 39.6514,-50.1131Q39.3763,-49.4283 39.0719,-49.0419Q38.7675,-48.6556 38.4514,-48.7376Q38.1939,-48.8078 38.1061,-49.1707Q38.0183,-49.5336 38.0475,-50.0838Q38.0768,-50.6341 38.1997,-51.3248Q38.3226,-52.0155 38.4982,-52.7413Q38.6738,-53.4671 38.8787,-54.1754Q39.0836,-54.8836 39.2709,-55.4924Q39.4699,-56.2065 38.8377,-56.663Q38.5334,-56.8855 38.2114,-57.0494Q37.8895,-57.2133 37.5383,-57.3186Q37.1637,-57.4474 36.9822,-57.3772Q36.8008,-57.3069 36.7071,-56.9674Q36.4964,-56.2182 36.3032,-55.428Q36.1101,-54.6378 35.9579,-53.8534Q35.8057,-53.0691 35.712,-52.3081Q35.6184,-51.5472 35.6184,-50.8682Q35.6184,-50.1892 35.7296,-49.6214Q35.8408,-49.0536 36.0866,-48.6439Z" fill="#09476b" fill-opacity="1" />
		<path d="M51.5747,-55.668 Q51.9376,-55.6914 52.002,-55.7909Q52.0664,-55.8904 51.9961,-56.1597Q51.9142,-56.464 51.762,-56.7801Q51.6098,-57.0962 51.3757,-57.3654Q51.2586,-57.5176 51.1006,-57.582Q50.9425,-57.6464 50.5796,-57.6464Q49.8889,-57.623 49.0168,-57.5586Q48.1446,-57.4942 47.2373,-57.4006Q46.3301,-57.3069 45.4579,-57.1898Q44.5858,-57.0728 43.8951,-56.9323Q43.6726,-56.8738 43.6024,-56.786Q43.5322,-56.6982 43.6726,-56.4289Q43.8014,-56.1714 44.0063,-55.7967Q44.2111,-55.4221 44.457,-55.1763Q44.6911,-54.9304 44.8784,-54.8778Q45.0657,-54.8251 45.3584,-54.8953Q45.5691,-54.9539 45.8852,-54.9948Q46.2013,-55.0358 46.5408,-55.0943Q46.3652,-54.2983 46.1896,-53.3676Q46.014,-52.4369 45.8677,-51.5238Q45.7213,-50.6106 45.616,-49.7912Q45.5106,-48.9717 45.4755,-48.4098Q45.4286,-48.1873 45.4872,-48.0293Q45.5457,-47.8713 45.6803,-47.7542Q45.815,-47.6371 46.014,-47.5552Q46.213,-47.4732 46.4588,-47.403Q46.7047,-47.3327 46.9037,-47.2742Q47.1027,-47.2157 47.2549,-47.2098Q47.4071,-47.204 47.4949,-47.2567Q47.5827,-47.3093 47.6061,-47.4732Q47.77,-48.3278 47.9866,-49.3112Q48.2032,-50.2946 48.449,-51.3306Q48.6948,-52.3667 48.9582,-53.4203Q49.2216,-54.4739 49.4675,-55.4572Q50.0411,-55.5158 50.5796,-55.5685Q51.1181,-55.6211 51.5747,-55.668Z" fill="#09476b" fill-opacity="1" />
		<path d="M58.1656,-56.6982 Q57.7676,-57.0142 57.1647,-57.2367Q56.5618,-57.4591 55.8945,-57.5645Q55.3794,-57.6464 54.8116,-57.4825Q54.2438,-57.3186 53.8341,-57.0025Q53.2254,-56.4757 52.7629,-55.8143Q52.3005,-55.1529 51.9844,-54.4153Q51.6684,-53.6778 51.5045,-52.8993Q51.3406,-52.1208 51.3289,-51.3716Q51.3172,-50.6224 51.4576,-49.9434Q51.5981,-49.2644 51.8791,-48.7259Q52.0547,-48.3981 52.3591,-48.1405Q52.6634,-47.883 52.9795,-47.7191Q53.3658,-47.5201 53.8341,-47.4206Q54.3024,-47.321 54.7472,-47.2742Q55.4145,-47.204 55.9296,-47.3269Q56.4447,-47.4498 56.913,-47.8127Q57.6037,-48.4215 58.0778,-49.2995Q58.5519,-50.1775 58.827,-51.1667Q59.1022,-52.1559 59.1724,-53.1569Q59.2426,-54.1578 59.1139,-55.0124Q59.0202,-55.5275 58.8153,-55.9314Q58.6105,-56.3353 58.1656,-56.6982Z M56.2808,-55.5275 Q56.515,-55.4572 56.6262,-55.0417Q56.7374,-54.6261 56.7374,-54.0407Q56.7374,-53.4671 56.6437,-52.8057Q56.5501,-52.1442 56.3979,-51.594Q56.2223,-50.9267 55.9823,-50.3589Q55.7423,-49.7912 55.4731,-49.4048Q55.2038,-49.0185 54.9345,-48.8312Q54.6653,-48.6439 54.4194,-48.7259Q54.1502,-48.8078 54.0097,-49.1707Q53.8692,-49.5336 53.8458,-50.0429Q53.8224,-50.5521 53.8926,-51.1433Q53.9629,-51.7345 54.1268,-52.2847Q54.2907,-52.8466 54.5541,-53.4495Q54.8175,-54.0524 55.1219,-54.5441Q55.4262,-55.0358 55.7306,-55.3226Q56.035,-55.6094 56.2808,-55.5275Z" fill="#09476b" fill-opacity="1" />
		<path d="M62.0757,-50.1892 Q62.38,-49.8146 62.7547,-49.4458Q63.1293,-49.0771 63.5039,-48.7376Q63.8785,-48.3981 64.2297,-48.1171Q64.5809,-47.8361 64.8502,-47.6488Q65.2599,-47.403 65.5701,-47.3737Q65.8804,-47.3445 66.1379,-47.4147Q66.3486,-47.4498 66.495,-47.4791Q66.6413,-47.5084 66.852,-47.6722Q67.0276,-47.801 67.051,-47.9181Q67.0745,-48.0352 66.8403,-48.2342Q66.5477,-48.4683 66.214,-48.7844Q65.8804,-49.1005 65.5409,-49.44Q65.2014,-49.7795 64.8794,-50.119Q64.5575,-50.4585 64.2883,-50.7628Q65.5994,-51.3482 66.5418,-52.0272Q67.4842,-52.7062 67.8939,-53.5139Q68.1632,-54.0173 68.011,-54.8017Q67.8237,-55.5392 67.4901,-56.0484Q67.1564,-56.5577 66.7467,-57.0025Q66.2316,-57.5059 65.5467,-57.6171Q64.8619,-57.7284 64.0951,-57.5937Q63.3283,-57.4591 62.5381,-57.143Q61.7479,-56.8269 61.0221,-56.4991Q60.8699,-56.4172 60.7294,-56.0836Q60.5889,-55.7499 60.4718,-55.2407Q60.3548,-54.7314 60.2494,-54.0934Q60.1441,-53.4554 60.0563,-52.7764Q59.9685,-52.0974 59.8924,-51.4184Q59.8163,-50.7394 59.7577,-50.1482Q59.6992,-49.557 59.6582,-49.0888Q59.6173,-48.6205 59.5938,-48.3747Q59.5704,-48.0703 59.6524,-47.8888Q59.7343,-47.7074 59.9567,-47.5786Q60.1792,-47.4615 60.425,-47.4147Q60.6709,-47.3679 60.9869,-47.2859Q61.2562,-47.2274 61.3557,-47.2859Q61.4552,-47.3445 61.5137,-47.5318Q61.6425,-48.1639 61.7771,-48.8195Q61.9118,-49.4751 62.0757,-50.1892Z M63.3283,-54.9421 Q63.7849,-55.1646 64.1946,-55.2465Q64.6043,-55.3285 64.9438,-55.3285Q65.6345,-55.3285 65.775,-55.0007Q65.8453,-54.8017 65.6579,-54.4388Q65.4706,-54.0758 65.0492,-53.672Q64.6277,-53.2681 64.0014,-52.8759Q63.3751,-52.4837 62.5674,-52.2145Q62.7898,-52.9871 62.9654,-53.6661Q63.141,-54.3451 63.3283,-54.9421Z" fill="#09476b" fill-opacity="1" />
		<path d="M71.4996,-56.745 Q71.1835,-56.9557 70.7621,-57.143Q70.3406,-57.3303 69.9777,-57.424Q69.6148,-57.5293 69.4334,-57.4532Q69.2519,-57.3772 69.1466,-57.0377Q69.0178,-56.4874 68.8656,-55.7558Q68.7134,-55.0241 68.5671,-54.2046Q68.4207,-53.3851 68.2803,-52.5306Q68.1398,-51.676 68.0286,-50.9033Q67.9173,-50.1307 67.8413,-49.4809Q67.7652,-48.8312 67.7417,-48.4215Q67.7066,-48.1171 67.7944,-47.9474Q67.8822,-47.7776 68.1515,-47.6488Q68.3973,-47.5201 68.6724,-47.4381Q68.9475,-47.3562 69.2519,-47.2742Q69.5563,-47.204 69.6558,-47.2625Q69.7553,-47.321 69.8138,-47.5201Q69.9192,-48.0469 70.0655,-48.72Q70.2119,-49.3931 70.3875,-50.1482Q70.5631,-50.9033 70.7504,-51.6935Q70.9377,-52.4837 71.1309,-53.2388Q71.324,-53.9939 71.5172,-54.6729Q71.7103,-55.3519 71.8742,-55.8787Q71.9562,-56.1948 71.8918,-56.3587Q71.8274,-56.5226 71.4996,-56.745Z" fill="#09476b" fill-opacity="1" />
		<path d="M77.0018,-49.6624 Q77.0369,-49.1824 77.072,-48.7785Q77.1072,-48.3747 77.154,-48.0352Q77.2008,-47.7074 77.312,-47.5786Q77.4232,-47.4498 77.7042,-47.3679Q77.9735,-47.2742 78.231,-47.2567Q78.4886,-47.2391 78.7929,-47.2391Q79.0973,-47.2391 79.1851,-47.321Q79.2729,-47.403 79.2729,-47.6137Q79.2612,-48.6205 79.2671,-49.797Q79.2729,-50.9736 79.2963,-52.1442Q79.3197,-53.3149 79.3666,-54.3919Q79.4134,-55.469 79.4836,-56.3001Q79.5188,-56.6396 79.4192,-56.8504Q79.3197,-57.0611 78.9568,-57.1898Q78.6876,-57.2601 78.4242,-57.342Q78.1608,-57.424 77.8505,-57.4942Q77.5403,-57.5645 77.1657,-57.6171Q76.7911,-57.6698 76.3111,-57.6932Q75.7609,-57.7401 75.4799,-57.5411Q75.199,-57.342 75.0234,-57.026Q74.5317,-56.1479 73.9873,-55.0182Q73.4429,-53.8885 72.922,-52.7296Q72.401,-51.5706 71.9503,-50.4819Q71.4996,-49.3931 71.2187,-48.5854Q71.1484,-48.3395 71.1543,-48.1932Q71.1601,-48.0469 71.2187,-47.9532Q71.2772,-47.8596 71.3826,-47.7952Q71.4879,-47.7308 71.6284,-47.6371Q71.8157,-47.5435 71.9972,-47.4674Q72.1786,-47.3913 72.3308,-47.3327Q72.6001,-47.2391 72.7347,-47.2742Q72.8693,-47.3093 72.963,-47.5084Q73.1269,-47.883 73.3025,-48.2751Q73.4781,-48.6673 73.7122,-49.1239Q74.3795,-49.2995 75.2516,-49.4224Q76.1238,-49.5453 77.0018,-49.6624Z M74.7658,-51.3013 Q75.316,-52.4135 75.8604,-53.4495Q76.4048,-54.4856 76.873,-55.3402Q76.8496,-54.4036 76.8613,-53.4495Q76.873,-52.4954 76.8964,-51.5355Q76.3579,-51.5004 75.8253,-51.4418Q75.2926,-51.3833 74.7658,-51.3013Z" fill="#09476b" fill-opacity="1" />
		<path d="M85.0092,-47.9298 Q85.3721,-48 85.4131,-48.082Q85.4541,-48.1639 85.3721,-48.4098Q85.3253,-48.6088 85.2375,-48.8254Q85.1497,-49.0419 85.0092,-49.2527Q84.8687,-49.4751 84.699,-49.5395Q84.5292,-49.6039 84.2015,-49.5804Q83.6512,-49.5453 83.183,-49.4985Q82.7147,-49.4517 82.1762,-49.358Q82.3635,-50.1658 82.5801,-51.0496Q82.7966,-51.9335 83.0366,-52.8232Q83.2766,-53.7129 83.5166,-54.5558Q83.7566,-55.3987 83.9907,-56.1011Q84.0961,-56.4055 84.02,-56.5694Q83.9439,-56.7333 83.6395,-56.9557Q83.3235,-57.1664 82.902,-57.3362Q82.4806,-57.5059 82.1177,-57.5996Q81.7547,-57.7049 81.5733,-57.6406Q81.3918,-57.5762 81.2748,-57.2367Q81.1109,-56.6396 80.9411,-55.9255Q80.7714,-55.2114 80.6075,-54.4388Q80.4436,-53.6661 80.3031,-52.8876Q80.1626,-52.1091 80.0456,-51.3833Q79.9285,-50.6575 79.8465,-50.0312Q79.7646,-49.4048 79.7295,-48.9483Q79.6826,-48.6556 79.788,-48.4507Q79.8934,-48.2459 80.0924,-48.082Q80.3616,-47.8713 80.5255,-47.7366Q80.6894,-47.602 80.8884,-47.4732Q80.9704,-47.4147 81.0582,-47.3679Q81.146,-47.321 81.2748,-47.2918Q81.4035,-47.2625 81.5791,-47.2742Q81.7547,-47.2859 82.0123,-47.3562Q82.7147,-47.4966 83.4932,-47.643Q84.2717,-47.7893 85.0092,-47.9298Z" fill="#09476b" fill-opacity="1" />
	</g>
</svg>